<mxfile host="65bd71144e">
    <diagram id="DYWAkDTncN9XaMB6TOYG" name="Page-1">
        <mxGraphModel dx="838" dy="606" grid="1" gridSize="10" guides="1" tooltips="1" connect="1" arrows="1" fold="1" page="1" pageScale="1" pageWidth="850" pageHeight="1100" math="0" shadow="0">
            <root>
                <mxCell id="0"/>
                <mxCell id="1" parent="0"/>
                <mxCell id="2" value="" style="shape=image;imageAspect=0;aspect=fixed;verticalLabelPosition=bottom;verticalAlign=top;image=data:image/png,iVBORw0KGgoAAAANSUhEUgAAB4AAAAQ2CAYAAADS2aAzAAAABHNCSVQICAgIfAhkiAAAABl0RVh0U29mdHdhcmUAZ25vbWUtc2NyZWVuc2hvdO8Dvz4AAAAmdEVYdENyZWF0aW9uIFRpbWUAbHVuIDI0IG1hciAyMDI1IDEzOjU2OjI3voDmxwAAIABJREFUeJzs3Xd4zWcfx/HPOTlZEiuIHYLaqza1R80apUqVGlW0albRmq1RVXu0RrUetfeuXaX2HrFXYksE2eOc8/yhTkUSDULk9P26LlfP+d3j9/0dnuS58sl93wYV62oVAAAAAAAAAAAAACDZaVQxt2qVyq5NB/y0cucFmZK6IAAAAAAAAAAAAADA8/m0URE5GA16I2saAmAAAAAAAAAAAAAASM4cTUZJktFokCQCYAAAAAAAAAAAANgfo9EgR5ODHIzGpC4FeKUIgAEAAAAAAAAAAGBXjEaDXJwck7oM4JUzGg3iVx4AAAAAAAAAAABgVxxNDkldApAkHE0OBMAAAAAAAAAAAACwL2z7jP8qB6ORABgAAAAAAAAAAAAA7AUBMAAAAAAAAAAAAADYCQJgAAAAAAAAAAAAALATBMAAAAAAAAAAAAAAYCcIgAEAAAAAAAAAAADAThAAAwAAAAAAAAAAAICdIAAGAAAAAAAAAAAAADtBAAwAAAAAAAAAAAA8YdrAFsrvnTHOti/b1lTlEnkkSb+NaKN0qd1eZWnAU5mSugAAAAAAAAAAAAAgufpsxCI9CIlI6jIAGwJgAAAAAAAAAAAA4CkyeLirR6tqSu3uootXA2Qy/bPJ7pSvmqv7qKUKuB+i8sW89V6tN2VyMCowKFTTl/yla7fvq16lQvLO4iGTyUFemdLK/16INu4+pToVCipzhlRatPGw/jx4XpJUpWQeNa1ZXA4ORvkHBmvi/O0KuBeSVI+OZIgtoAEAAAAAAAAAAICn+LB+aflcuKGuIxdryebDKpwnS6w+6dO4q1Ozt/T9r5vVbdQS7Th0QV1bVJEkWSxWFcuXTTOX7VKfcSuUI7OHyhTKoeEzN2jqwh1qWqOYJMk9hbM6NXtLw2du0GcjFun6nftqWqP4K31WJH8EwAAAAAAAAAAAAMBTFMqVWbuOXpIk+d4I1KVrAbH6FM2bRWcu39JN/weSpO0HziuPV3qlcHGSJJ25fEshYZGyWKy6Exiko2evSZJuBjxQ2lQpJEnBoRHqMGSebgUESZJOXrihjOlSvvTng31hC2gAAAAAAAAAAADgKdxTOCk47J9zfoNDY5/5m9rdVUGPnQUcFW1WRKRZqdxdJEnhkdG2NovFqoioaNtro9EgSTIYDGpYtYiK58smSXJzdZI/2z/jGREAAwAAAAAAAAAAAE8RHBYpNxdn3VGwJClNStdYfe4Hh6lAroy2986OJjk7Oeh+UFiC7/NWcW+VKZJDg6asVUhYpCqXyKOqpd948QfAfwoBMAAAAAAAAAAAAJLE2+Xz6+chrZQtY5qn9jMU//wVVRS3s5dv663i3rp8PUBveGWQV6a0sfocPXNNH71TVpnSp9JN/weqXjavTl28pbCIqATfxz2Fi+7cDVZIWKTcXJ1VtfQbcnEizsOz4QxgAAAAAAAAAACQrOT3zqjVEzspdO9Yhe4dq9UTOylfTs+Xdr+P360g65FJMjk8W6zStUVlRR+a8JKqSrjnrf9VmD6o5b+Gv6+DOWv3q2jerJo+sIUaVSuqAz6+MjoYYvQJuB+iHxfv0Jdta2pi32YqXSiHpiz885nus+vIRaVyc9HEvs30xUfVNX/9AWVI666WdUsm5uPAzhlUrKs1qYt43X1Yv7TmDG+joT+t15Cf1sVqf792Cc0b2VYHT/mq5ieT9SAk/KXWU65oThXOk0Uzl+16qfcBAAAAAAAAAOB1ky+np/bM+SLWFrz3gsJU9sMfdPbK7US/58fvVtCMQS3lWLK7os2WBI8rlDuz3iqeS9OX/pXg/msnd1bOuoOft9Q4PW/9r0LUwQkyGCTnUj2f2s9seba6U7g4vUhZQLKyZmQD2+sG/dck7hbQ1iOTEmWepF7G/ywaVC6sOcPb6Pj566rdZepLD38lqV2jciqWNysBMAAAAAAAAADgP2dkt4Zxnr+aJqWrRnZrqKa9ZyZBVTEZDAY5GA06eeGGTl64keBxJQtmf4lVJa5Hz5gYgbLV+uwBL4D4vX5r/ZOR6mXyavHo9jrne0e1Ok1W4IPQV3Lf0oVyJPqcLs6OiT4nAAAAAAAAACSG0ysGynpkkqxHJslyeKJubxupVRM6qWCuTLH6Bu8eoxZ1/tkqNVP6VLaxcf0pVdDL1rdFnZKyHpmk/h3ejjXvmkmd1a99LUmSm6uTHvz1g9o2LBtnvaN6NNLJZV/b3v80oEW8918zqXOsZ725ZUSsgLNUQS+F7xsX49oXH9XQ6RUDY1x79AyP/gTt+kH75/VRr9bV5WhyiLPehlWLaNvMbrr/12iF7h2rk8u+1oCOteX8mp47Wq103njbqpeJv+3flC/qrb9m91LY3rG6tmmYRvdsLCfHmJ9Z3hye2vlrT4XtHatL64bG+DewbOzHWjCqnQZ3rqvg3T+oQeXCsbaAzp4prRaNbq9bW0cobO9Y+Sz/Wp80fUuSNKRzPc3+trVyZPaQ9cgk9WhVTZL0VvFc+nNWD4XuHavg3WO0dUa3GDlBr9bVdffPUapZNp9OLP1KEfvH6+LaIfqwfulYz/i0+iWpZd2SOra4vyL2j9etrSM0qd97cn0sP4jrGZPKkM71NLzrO0l2f+B1lqhfvR1Ldk/M6V5r5Yrm1Mrxn8jv1j3V/GSS7gQGx+rj5Oig3m1q6MP6pZU7W3pFRpl1/Px1TZq/XQt+P2jrlyd7Bp1bPUjDZmzQqj+Oa1SPRipdyEvhkVHae/yKeo5eqnO+d1SqoJf2z+tjG2c9Mklb9p5RzU6TbTV92bamyhTOofRp3HUz4IF2HLqggVPW6PL1u7ZxXZpX0tSvmqt6x4lqWrO4PnqnrGav3quuIxdLknJk9tCQLvX0dvn8ypDWXfeDw7T76GUNm/G79p248rI+UgAAAAAAAACI17AZGzRtyU4ZDAZl9UytEZ831JIxHVSwyfAEjW/Sc4ZOnI+9EtPvVmCM93fvh+rrj2tr3roDunLjbqz+khQSFqn5vx9Qu0bl9OuqvTHaHIxGfVi/tEb/uiXG9W37z+mTb+bHMVdErGsmB6OGdW1g+5ntswoNj1S+Rt9KkrJkSK2yRXJqUKc6alC5sOp8OkWRUWZb395tquv7Ho01ecGfGjZjg276P1DJgtk1pHM91a1YSFU7TFBUtDm+WyUJgyH+Nqv1+U699M6aTpumddXSzUfUe8wyZU6fWtMHtZCzk0ndRi2RJEWbLZrcv7lG/7pFF6/5a0DH2po+qKU27Tmja7fvKTLKrMJ5MsvZyaQ6n07VqYu31KJOiRj3+WVoK7k4O6rB59MU+CBUNcvl05Svmuvy9QB9/+tmpU2VQk2qF1WJFt8rOCxCeXN4avO0rlr95wlVaDNWRqNBgzvV1Zbpn6tAk2G6dvueoqLNSunmor7ta+mdbtPkfy9Ygz6pq9nfttaxc9d17Oy1BNXftGZxzRvZVqN+2aT3+vysXNnSa/rAlvJInUKt+s+WpDifMSnky+mprz5+W44mB1msVg2csiZJ6gBeV4kaAL9u+8a/LMXyZtX6KZ8q4H6IanwySTf8H8TqYzAYtHxcR9WuUECzV+3TD7O3yM3VSR/WL63537VVziwe+m7WJklSRFS0JKl0IS+1qFNCI2Zu1FeTVqlE/uwa+8W72vDjZ3rjnW903u+OmvScoUWj2+vStQD1Hb9St+8GSXr421/bZnTT3Qehmr70L92480B5vDKoy3sV9Xb5/CrYZLgC7odIkiL/vl+bd8qqfFFvjZ/7h/affBjsZs+UVvvmfiE3V2dNmr9dJy/cUJ7sGdTtgyra8UtP1ew0STsOXXjpnzEAAAAAAAAAPO5+cJiu3ronSfK7GahJ87dr8Q/t5WA0Jmjr2Ku37um8351/7Xfe747OXrmt8V82VZOeM+LtN2PpLu2b+4VyZ0+vC37+tutvV8ivdKndNGfNvhj9Q8MjE3R/SRo5a6OGfdZAs1bs0aFTfgka8zirVbbP6uqte9p34orW7Typ40u+0qfNK2v83G2SHv48+LvujdRn3AqNnbPVNv7khRv6Y/85nV45UJ+9/0//18WWvWf1bo1icbZt3Xf2uebs/F5FPQgJV/vBc23/ntxTOKtSidy2PiYHo0bP3qz1O30kSV+OW6nmb5dQ0bxZdO32PUWbLXrDy1OV2o2Pd8fQEgWya9xv22w/kz/vd0eHT1/V5esBCg2PVFhEpCxWq/zvPVx01qV5RUVEReujAXMUFhElSWo3+Dfd2DxCHzUsoxEzN8pqtcrkYNR3szbp0rUASdJXk1arU7OKalG7hC0A/rf6v2xbUzsPX1C/CaskSWcu31a/CSs1Z3gbfTluZYKf8VU4c/m2WvT9RQu/b68BHWvLYrFo8I/rkqwe4HXDFtDPKF9OT2386TOFhEWoesdJ8rsZGGe/92uXUL2KhdR7zHJ1GDJXv6zco8kL/lTFtuN0wMdXgzvVVbrUbpL++Y2kt8vnV9PeP+uXlXu059hlTV20Qws3HJJ31nR6M3823QsK04ptx2SxWBX4IFQrth3TrqOXJD38pnH4zFV90O9XDf1pvaYv/Utfjluh/hNXydMjpVrW/WfLk0e/3VW7QgFVbDtOA6es0ao/jkuSvv2svjw9UurDr2ar/8RV+m3tfg35aZ2qfjxRDg4Gje7Z+KV9tgAAAAAAAACQEKndXfVB3VJa8+eJRD831MnRQX3GrVC10m+ofqVC8fY74OOro2evqW3DcjGut2tUTsu2HLUtyHke5339NXH+dk39qrmMxqcsd30GF/z89dva/Xrv7Tdt1xpXK6rQ8EhNmr89Vn/fm4H63+p9sVawvg76TVipu/djh49374eq/8RVzzVnqYJeOnzaL8a/pzlr9sVatf3X4Yv/3O/Bw79jj1QpbNfO+915ajC6YtsxfdXhbY3p3UQ1yuaTk6OD9h6/rFsBQXH2L1nAS4dOXbWFv9LD57xw9Y6K58sWo+++E5dtr6OizTp75bbye2dMUP0ORqNKFMiuLXtjBuh/HDgvg8GgskX+2XL6357xVVm25aha9Z8ts8WiQZ3qalCnukldEhAno9GQoD+JKXFXAD+2j/2LMJV4PbeSzpHFQ5unfS5Pj5Taf/KKrt+5H2/f5n9/E/39Lx9lSp8qRtvq7SdUqqCXqpZ+Q0s3H7Fd33/S1/abOI/4XLwpScrqmUYHfHzjvd/0pX9p+tK/bO+NRoOMBoOOn7suScqZJZ2t7VHgvHr7cdtvEUkPVy03rlZUN/0faOXfgfAjx85e097jV1ShmLfSp3GPMQ4AAAAAAAAAXrZvP62vAR1ry2AwKJWbi/afvKJG3acnePyfv/SQxRJze+BDp/xUuf34GNcMBoNu+j/QoKlrNbFvM23Zd1bhj4Vvj5u5bLf6tqupwT+ulcViVdpUKdSwShHV/WxqrL513iqg4N1jYl1v9sXP+v0vnydqkL6Ztl6nlg/Qx00qxPjZ74vwuXBT7zx2ZmuubOl07sqdeLd4PnnhhprWjHulbVI653tH5duM0fc9G6lGmXySpC37zqjP2BU655uwVdZPSu3uqsDr/x5qhoZH2l4/2m3a8Nie1P8WjHYcOl+HT19Vq3ql1PPDagoKjdDEeds19Kd1ce6ymsrdJcYK83/uE6ZUbi4xrgWHRsZ4HxoeqRQuTgmq39XFUSYHo77uWNt21vXjMqb7J+d4VeFv+L5xcnD493WMDsaHfYZ2qSer1apvp//+sksDnknTmsVtuWF8Fm88rEUbDyfaPV/PE9xfU20bltWJ8ze0avtxfdq8kn4Z2kot+/0aZ99CuTNLkk6vGBjvfDkye8R4H9d5EhGRD7drdnR8+hc5o9Ggzs0qql3jciqYK1OsL+qmOL5IPvmNMFO6lErt7qqDPn5xnpNw5vItVSjmrTxe6QmAAQAAAAAAALxSY+ds04xlD4NQj9RualmnpPbP66PSH4yO85i+J33Q79dYZwCHR8Yd7ErSlAU71L5xefVvXyverWV/W7tfo3s1Vo0y+bRpz2l9ULeUrt66pz8OnI/V98+DF+I8Azi+hUYhYZHqNWaZpg1oqWVbjj7t0RLMKqvtSEJJio62yMEh/lVnRqNBz3mk7kt39sptNe4R/xbdzyooNFzp0rgl2nzxMVssmjR/uybN3670adzV5p0y+q57Q90JDNLEebFXYt8PClPax1YYP+KRKoWuPnF+dZqUrjHC2ZRuzrZjJP9NaHikoqLNmjD3D/28Ynes9vhWKAP4d4v/DnbjC4ETO/yVEjkAfl1X7iaWjbtPq0nPGQqLiFKmdKnUok5Jnb58S0N/Wh+rr5urkywWq+p//lO88529cjvG+0dbMz+Pkd0a2vbnbz94rvxuBtoOY//lmw/jHHMvKOyJmp0lPfw/FnF5dN39734AAAAAAAAA8KoEBoXq8vWHi2guX7+rQ6f8VKt8fnVs+pa+mRb7Z7RPSugZwI+YLRZ9Onyhtkz/XHPW7I9z0cz94DAt3nhY7RqV06Y9p9W2UVnNXL4rzr7PcgbwI0s2HVHHd9/Sd90b6sfFO55pbFxKFfTSmcv//Fz6vN8ddX6volycHeNc5VzAO1Osn2PbqwMnfdWpWUWlcHGyrZJt3aCMPm5SXtU6TkyUe6R2d1WDyoW0aONhRUWb5X8vWGPnbFX9SoX0Zv7stn6Pryg+4OOrDk3Kx/g78vRIqTxeGWIFteWLemvdzpOSJFdnR+XN4anV208kqDaLxaqDPn7KkcVDpy/dsl13cnRQtoxpk2TLZ5cyPf+1z/u1S2juyI/kYDRq8I/rWP2L11Z8IfDLCH8lVgA/k91HL9m+8H80cI7y5vDU4E51deriLS3aeChG36CQCGX1NGj/iSsvdNZDQrg4O6pbyyq6euueanaabFs1LEmpU7omeJ7gsAhJDw+2j4ub68NVxUGhES9QLQAAAAAAAAAkDoMkR5PDS5t/19FLWrDhkCb1a6bQ8LhXC89Ytksbf/pMxfNlU/F82fROt2mJWkPXkYt0bHF/7T955YXmye+dUc1qFlenYQts11b+cVwTvmymHq2q6rtZm2L0z5IhtVo3KK0+Y1e80H0Tk8FgUJWSeVS/UiGVLZJTObN42FbHBj4I1aVrAdp74orW/nlCfx66EGcQH59pS/5S1xaVNXfkR/r+l83y9Eip73s00vKtR2NtHf68rFarpnzVXDXL5deEuX8oKDRcJfJnV5nCOTR33f6/nyNMmdKlUuWSeeR3M1BTF+1Ql+aVNHPwBxo+Y4OcnUwa2e0d3QsK1exVe21zR5st6te+loLDInTjzn199XFtOTuZNG/9gQTXN3r2Zi0e3UF929XSsi1H5ObqrP4daqnim7mVr9G3Cn7NsoHHw99vpq1P0C+CAEnpyRD4ZYW/UmKvAE7AXuwJEdc+96+b4NAINew+Tfvn9tGv336oS9cCYnwDPnnhhvJ7Z1TZIjltv3HzSNpUKRQUEp5oz5k5fSq5ODvqgI9vjPBXkqqUzJPgeW76P9Dd+6EqmCuTDAZDrG+OhXJnltVq1ZnLt+KZAQAAAAAAAABejtTursqWMY3tdfO331TB3JnVYci8BI3PnCGVcmbxiHU98EGY7geHxTHioS/HrdCZlQMVGWWOM4TdefiCLl8P0LSBLbR6+3HdjGc7aldnxzjvb7XGfTzgI+d872jMnK0a2qV+vH2eZDDI9lm5p3BWpTdza1jXBtq894zmrNlv63fT/4F6/bBME/o2U2p3Vy3edFghYRF6M392ffNpfe05dlnTliTO+cMvqla5/JryVXO94ZUhznb3FM7KnimtKpfMoz4f1dDZK7f12YhF2rz3TILmP+93R293maJRPRpp28xuuvsgVHPXHdCAKWsS7RkehISrVqcpGv55A22d8blcnR11+fpdDf5xnWat2CNJmr/+gNo2LKu1kzpr9Owt+mbaetX8ZJK+695IhxZ8qWizRTsPX1DVDhN1JzDmUY39JqzU5P7NVSh3Zl29FagP+s2OsZr33yzbclQffj1b/drV0jef1ldwaIR2HD6vqh0mvHbhb76cnrbwd/jMDfFu0w68bh6FwAbppYW/UiIHwFEHJyTKPIbinyfKPC/bpWsBav7lLG348TOtnPCJyrQarau37kl6+JfWtGZx9W5TXev/8rGFqQ5GoxZ+304Fc2VSvkbfxrvd8tOYLRa5Ojva3t/0fyCr1RrrTOEC3pnU5p0ykh6uEk6IZVuO6ON3K6hxtaJavvWfcyVKFMiu0oW8tHXf2VhbRwMAAAAAAADAyzagY20N6Fhb0sMg7eSFG2rYfZoO+PgmaPyqCZ3ivD5wyhoNm7Eh3nF3AoP19eQ1mvpV83j7zFy2W2N6N1H9rvGvQKxeJq8urRsa67rZYvnX4xWHz9igVvVKK00Cd3xM4eIkvw3fSpLCI6J03s9fo2dv0bg522It/Jm6aIcuXQ9Qr9bV9UnTt+Tq4qgLfv6atWK3xvxvq8yWpF+w1aFJec0c/MEzjcmbw1ObpnXVx0Pn6eflsc+0jcuOQxdUoc3YONtmLtulmct2xbgWHBoRI8/48KvZscZNXvCnJi/40/Z+/8krervzlHhr8L0ZqAJNhsW4tuvoJVVuP/6ptRsMD/uVaDHqueuXpPnrD2r++oPx3ieuZ0wKZy7f1uCp6+Tm6qQBkxMvpAdehcUvMfh9hC2gX9DWfWfV64dlmti3mVZN6KRK7cYpJCxSizcd1kc7y6hexULa9NNnWrDhkFycTPqgXimVL+qtgVPWPFf4K0kXrwaocJ4sGt71Hd0JDNb4udu05s+TeqdKYf00oIW2HzynQrkz65Omb+mDfr9q3ZQuql+pkFrVK6WVfxx/6tyDf1yn+pULa87wNhr32zb5XLyhXFnTq8eHVRUcGqleY5Y/V80AAAAAAAAA8LzyN/42wX3dy/eO8f6m/4MELzpa8PtBLfg9dvj146Id+nFR/Gfwjp2zVWPnbI23vfOwBer82NbLTxPXs4ZFRMm73uBY13+YvUU/zN4S41p8z/A063f6aP1On2ca8yp9173hC41NaACM5GX4zPh/cSOxLPy+nRpULhxv+4ptx9Sq/6sPxSf3f0+NqxXVvPUHNf63bRrapZ5mr96rnYcvJniOuSM/Uhp3V9X//KeXWCmSSqIGwMll5W5imzR/u4rlzaoOTcprzvA2atr7Z1mtVjXpOUO929RQq3qlNLnfewqLiJLPxZtq1X/2M+27/6Qvxi7XjEEt1e2DKjrg46vxc7epw5C5Gv9lU71bo5ha1Sulg6f81LT3TO04dEHfTFuvvu1qaXSvJtqy7+xT575+577KfviDhnappw5NyitDWnfdvR+izXvO6Jtpv+vUpZvPXTcAAAAAAAAAAM/C5GBU+jTuzz0+fRp3mRyMyeLoyf8yg+HhDqpPk1Sr0S9eC1C375bE2Xb7btArrkbKlTWdCubKpA5D5qlri8o6t3qQLl4L0GcjF73yWvD6MqhY18Q5vRwAAAAAAAAAACARmRyML3z8pGPJ7gTAr7HL64fGOuIyLs+6CDGFi9PzlmSz8Pt2ypHZQ+Vaj3nhuRKLewpnuadwtp037p01nW7fDXrmXWdZAWxf1oxsYHvdoP8atoAGAAAAAAAAAACvp2izRY4ln35GckLmwOury/CFmjGopbJ6pknqUl5I24Zl1bVFZeXMmk5h4ZHacfii+oxdrmu370uSbm0doe9+2aQ82TOoSbWicnR00Ja9Z/XpiEW6ez9E0sMV66N6NFS10nmVJpWr/G7e07TFOzX1sS3oD8zro6mLdipNShe1a1ROKVydtPvoJXUZtlA3/g6FnR1NGty5rprVelOeHu666f9AC34/pGEzfud/D/8RBMAAAAAAAAAAAOC1RWBl39bv9FG2twcmdRnxMhgMcnGKO06LiDLLarXqreK5NLn/e/r8uyXafuCc0qVx07ddG2jO8Daq3nGSJCkq2qyerappyE/r1Gv0MuX3zqilYz/WpH7NbOcIzxjcUt5ZPNT66//p9t0glSmcU1O/bi6/W4Favf3Ew3nMFnVpXlE/Ltqpwk1HKF1qN2386TMN6lRXXYYvlCSN/7KpGlcrqm6jlujQKT+VLpxDE/o2lbOzSf0nrHoFnxqSGgEwAAAAAAAAAAAAEIfCeTIr4M9RcbZVajdeh075qVjerIqIMmvuuv2KjDLr4rUAtfl6jrwypbX1tVqtOnPltmat2CNJOnr2mqYu3KHBnevKzdVJIWGR6vTtAlmtVt0JDJYknfO9oy7NK6pG2Xy2AFiSrt++r4nz/pAkhYRFat1OH1V8M5ckySO1mz6oV0rDZvyuxZsOS5IuXPVXsbxZ1KFJBQ2eulaRUebE/pjwmiEABgAAAAAAAAAAAOJw3s9fHYfOi7PtzOVbkqRtB84pOtqsTdO6avaqvdqy96yu3Lir23eDYvQ/4OMb4/2pSzdlcjDKO2s6nTh/Q+nSuGlkt3dUtnBOpXJ3sfW7cNU/xrhj567FeH8/OExpUqaQJBV5I7NMDkbtPnop5r1P+qnbB07KlS29Tl+69QyfAJIjAmAAAAAAAAAAAAAgDmHhkdp34spT+5y6eFNVP56oHq2qamiXeprU7z3tP+mr7qOW6OjZf8La4JCIGONCwyMlSSlcnOTiZNLi0e117fZ9VekwQRev+ivabNHm6V1j3S88IirWNYPh4X9TuT0MjgMfhMVoDwwKjdEO+2ZM6gIAAAAAAAAAAACA5OzUxZvq9O0C5ag7WDU/maxos1krxneUo8nB1idNKtcYY1KmeBjGBodFqHCeLPLOmk4Dp6zR2Su3bWdfZ0yX6pnquB8cLklK+8S9PFKliNEO+0YADAAAAAAAAAAAADyn0oW8VLZITkmSxWLV7mOXNHjqOnl6pFTm9P8EuGUL54wxrmjeLIqIitalqwFyd3OWJAWF/rNKuHxRb+XKms62ujchjp+7rmizxVaP7d5Fc+pBcLgu+N15pmdvrq30AAAgAElEQVRD8sQW0AAAAAAAAAAAAEAc3FM4q1a5/HG2WaxWbdl7RrXK51enZm+p+6ilOnr2mlK6uejT9yvJ92ag/G7ds/XP4plaAzrW1vz1B5U7e3p92rySVmw9prCIKB0/d12h4ZH67P1KGj5jg4rmzaq+7Wrq979OKa+Xpzw9UsY6UzgugQ9C9b/V+9SrdXWd872jo2euqVKJ3GrXqJzGzdlmW1kM+0YADAAAAAAAAAAAAMTBO2s6rRjfMc42s8WiVBX6aNSszTI5GDWsawNl8UytoJBw7Tl2WY26T5fVarX1/2XFHqVJ5arts7rL2cmkDbtOq+cPyyRJAfdC1OnbBfr2swZqUaekDvj4qvOwhfLKnFb/+7a1lo39WBXbjktQzb3HLNOD4DCN/eJdZUjrrqu37um7WZs05n9bX/wDQbJgULGu1n/vBgAAAAAAAAAAACQPKVyckrqEGPw2fKPJC3Zo1C+bkroU2KE1IxvYXjfov4YzgAEAAAAAAAAAAADAXhAAAwAAAAAAAAAAAICd4AxgAAAAAAAAAAAA4CXKXntQUpeA/xBWAAMAAAAAAAAAAACAnSAABgAAAAAAAAAAAAA7QQAMAAAAAAAAAAAAAHaCABgAAAAAAAAAAAAA7AQBMAAAAAAAAAAAAADYCQJgAAAAAAAAAAAAALATBMAAAAAAAAAAAAAAYCdMSV0AAAAAAAAAAAAAkJhaNyiT1CUASaJ1gzIyqFhXa1IXAgAAAAAAAAAAAAB4dlvHvWt7Xb3nMraABgAAAAAAAAAAAAB7QQAMAAAAAAAAAAAAAHbCVMRwLqlrAAAAAAAAAAAAAAC8oCKGc6wABgAAAAAAAAAAAAB7QQAMAAAAAAAAAAAAAHaCABgAAAAAAAAAAAAA7AQBMAAAAAAAAAAAAADYCQJgAAAAAAAAAAAAALATBMAAAAAAAAAAAAAAYCcIgAEAAAAAAAAAAADAThAAAwAAAAAAAAAAAICdIAAGAAAAAAAAAAAAADtBAAwAAAAAAAAAAAAAdoIAGAAAAAAAAAAAAADsBAEwAAAAAAAAAAAAANgJAmAAAAAAAAAAAAAAsBMEwAAAAAAAAAAAAABgJwiAAQAAAAAAAAAAAMBOEAADAAAAAAAAAAAAgJ0gAAYAAAAAAAAAAAAAO0EADAAAAAAAAAAAAAB2ggAYAAAAAAAAAAAAAOwEATAAAAAAAAAAAAAA2AkCYAAAAAAAAAAAAACwEwTAAAAAAAAAAAAAAGAnTC86Qds2zdSr58fPPK5WnQ9165b/i94eAAAAAAAAAAAAAPC3Fw6A791/oMuXr8a6njmLp5ydnHT37j09eBAcqz062vyitwYAAAAAAAAAAAAAPOaFA+AVKzdqxcqNsa7P/d94FSmSXzNnLdRvc5e/6G0AAAAAAAAAAAAAAP8i2Z8B7ObmmtQlAAAAAAAAAAAAAMBr4YVXAL+It2tV0ruN68g7V3al80iryKgoXbzoq5WrNmrpsvWyWKy2vl7Zs2jNqlnyu3pDjd/tqIFfd1ON6hUUEHBPDZv8cwaxh0catW3TTFWqlFWWzBllsVjkd/WGNm/eqTlzlykkJCxWHa6uLmr6bl3VrV1FWbJkVOrUKRUUFKITJ89qzm/LtGfv4Vhjcnl7qX2791SqZFGlT++h6Oho+fvf1e49h/XbvOW6cuXay/nQAAAAAAAAAAAAACAeSRYA9+3TWa0+aCyz2awDB4/r4MET8vBIrTKli6lokfwqVCifhgwdZ+sfFh4h6WFY2/mTVqpTu4qOHjulO3fu2vrkzuWl6dO+U4b0HvL1vaY1a7fI3d1NJUoU1qddWqt27Spq/3EfBQbet41xdXXRtB9HqHixggoKCtbBQycUEhKqHF5ZValiaVWqWFpfDxit1Wu32MYUKphXv/w8Wi4uzjp95oIOHzkpSSpQII/eb95AdetUVYeOX+rM2Ysv+2MEAAAAAAAAAAAAAJskCYBz5MiqVh80lsViVavWPeRz6pytLX/+3Jo3Z4LebVxbv81drvPnL0uSzGazJMkthatq1HhLjZt+ouvXb9nGGY0GjR71lTKk99CSpes0bMRkWSyWh2PcXPXdiH6qUrmsvvyik/p//b1tXIP61VW8WEFdu3ZTLVp9rvv3g2xtLVs0VP++n6p3r45au36rbUVyh/bvy8XFWTNmztekKbNjPFuHdu+re7d2+qRjS/XuMzxxPzgAAAAAAAAAAAAAeIokOQM4JDhUPXp9oz59R8QIfyXp9OkLOnbstCTpzeIFbdcfhbmuri5av/6PGOGvJFUoX0p58uRUQECgRo+ZbusvSSEhYRr6zXiZzWbVqV1FHh5pbG2HDp1Qn74j9PWgH2KEv5K0eMk6WSwWeXikkZdXVtv1rFkySpL2HzgW69l+/d8SfdK5v8ZNmPVMnwkAAAAAAAAAAAAAvKgkWQHsHxCordt22d6nTp1SKVxdZTAaJEnBIaGSpJQp3eMcv33H3ljXypYtLkk6cPC4wsLC47ynj885FSmSX8WLFbTd/8JFX1246CtJMhqNSp06pVxdnCXDw1oeBAUrTepUMWo5f/GKChTIoy6dP9SNm7djnPdrNpvjPDMYAAAAAAAAAAAAAF62JDsDOE+enOr8SSuVL/dmvEGvQYY4rz9+7u8j2bJmfjhv7hwa9k3vOMelS+8hSfLyyhLjetUq5dSmdVMVKZJPzk5O8dTyj8mTZ6tkiSJ6s3ghrV7xsy5cuKI9+45o164D2rfvqCIiI+OcAwAAAAAAAAAAAABepiQJgAsUyKPZs8bIxcVZR476aPOWnbp9O0CRkVGSpI9aN9WbbxaKd3xwUEisa64uzpKk3LlzKHfuHE+9f0p3N9vr95rV08Cvu8lisWrT5h3av/+oAu89sJ05/O3QXrEC6hs3b6tZ8y5q2aKh6tauojx5cip37hxq1bKRgoKCNee35Zo+c36MbagBAAAAAAAAAAAA4GVLkgD4888+kouLszZv2anefYbLarXGaH+nQc1nnjM0LEyS9OvsJRo7fmaCxjg6mtSjW3tJ0vejf9K8BStj9flmSK84xwYHh2jGzPmaMXO+PD3TqWzp4qpWrYKqV6ugT7u0lpt7Co0ZO+OZnwMAAAAAAAAAAAAAnpcxKW5arGgBSdKixWtjhb/Sw22cn5Wv73VJUpYsGRM8Jpe3l1KmdJfFYtWSZetitWdI76FUqeLenvpxt28HaPXaLer1xbf67POBkqQPWjSSg4NDgmsBAAAAAAAAAAAAgBeVJAGw+e+tkeM6K7dSxdLKkSOrJMkQ9xHAcdq3/6gk6a0KpeINbWvWqKhc3l6x6rBYzIqOjo7Vv/WH79peG/4uJlUqdzWoX111aleJ8x67dh9UZGSUHB1NSpcuTcIfAAAAAAAAAAAAAABeUJIEwBcv+EqSqlUtH+N6kSL5NWRQDx04eFySlDFjhgTPuWfvIZ07d1lubq7q9+WncnSMubv1u41ra+wPA/Tj1GFydnKSJPn5XldUVLRMJpMqvlU6Zv8mdVSrZkX5+l77u5b0trZBA7pr6OCecZ5T/HatSnJyctTdu/fk7x+Y4PoBAAAAAAAAAAAA4EUlyRnAP/+yUCVKFFbbNs2UN4+3/K7ekHfObCpVqpjGjZ8p/4BAlSpZRI0bvy0HB6OWLf9dV6/dfOqcFotVX/YboenTvlOD+tVVulRRHTh4TJKUP38e5c7lpZCQMA0cPNa28jgiMlJz561Q24+aaewPA7V5y06FhoapeLGCypo1k7p0HaCGDWrKyyurevfqqNKlimnCxFkaO36m+vf9VLNnjdFJn7Py9b0ug0Hy8sqqggXekMVi0Xff/yjL3yuMAQAAAAAAAAAAAOBVcMiYKc+QlzFx0yZ1lDFjev2166COHT8do83X97r8rl5X9uxZVKhQXnl7Z1PA3Xv6fvRPWrlqky5f9pN3zuzyyp5FWbNm0h/b9+ju3Xtq1/Y9SdKMmfNlNptj3TMw8L5Wr9ksWaXMWTKqeLGCypkzm8LDw7Vu/R8aNHScfHzOxRiz/8AxGY0GZcuWWcWKFlDmTJ7yOXVeXw8crZMnz+rc+csqXrSAsmfLorRpUmnp8g06dOiETpw4K3e3FMqZM5sKF84n75xeslis+nPHXg39Zrx27T70Mj5WAAAAAAAAAAAAALCpW7ui7fXvG/6SoUjx2tYkrAcAAAAAAAAAAAAA8JwmjO1re92916ikOQMYAAAAAAAAAAAAAJD4CIABAAAAAAAAAAAAwE4QAAMAAAAAAAAAAACAnSAABgAAAAAAAAAAAAA7QQAMAAAAAAAAAAAAAHaCABgAAAAAAAAAAAAA7AQBMAAAAAAAAAAAAADYCQJgAAAAAAAAAAAAALATBMAAAAAAAAAAAAAAYCcIgAEAAAAAAAAAAADAThAAAwAAAAAAAAAAAICdIAAGAAAAAAAAAAAAADtBAAwAAAAAAAAAAAAAdoIAGAAAAAAAAAAAAADsBAEwAAAAAAAAAAAAANgJAmAAAAAAAAAAAAAAsBMEwAAAAAAAAAAAAABgJwiAAQAAAAAAAAAAAMBOEAADAAAAAAAAAAAAgJ0gAAYAAAAAAAAAAAAAO0EADAAAAAAAAAAAAAB2ggAYAAAAAAAAAAAAAOwEATAAAAAAAAAAAAAA2AnD2bNnraGhoQoLC1NkZKSioqJktVpltVplsVhidLZarUlUJgAAAAAAAAAAAAD8NxkMhhjvjUajDAaDDAaDjMZ/1vxmy5ZNJicnJ1ksFhkMBjk6Oio6OtoWAEuEvgAAAAAAAAAAAADwungUBj8KgENDQ21tTk5OMjk7O8tgMMhkMik6Olpms9kWABMCAwAAAAAAAAAAAMDr4cnw98kA2NnZ+eEKYIPBIAcHB9u2zxaLJd7wlzAYAAAAAAAAAAAAAF6NJ7d/fjwENhqNunXrlq3NyclJJpPJFGP7Z0mxzv59hPAXAAAAAAAAAAAAAF6tJ0PgRx4//1eSTCaTTI6OjjIajbJarbZVwJLY/hkAAAAAAAAAAAAAXjOPrwB+kqOjo0wODg4yGAy2oDe+1b8AAAAAAAAAAAAAgNeXg4ODTI/O/5UervZ9cpkwAAAAAAAAAAAAAOD1ZzAYHq4AZrtnAAAAAAAAAAAAAEjeHBwcZJKevk80AAAAAAAAAAAAACB5MBqNRhkMBsJfAAAAAAAAAAAAAEjGjEYjK4ABAAAAAAAAAAAAwF4Yk7oAAAAAAAAAAAAAAEDiIAAGAAAAAAAAAAAAADtBAAwAAAAAAAAAAAAAdoIAGAAAAAAAAAAAAADsBAEwAAAAAAAAAAAAANgJAmAAAAAAAAAAAAAAsBMEwAAAAAAAAAAAAABgJwiAAQAAAAAAAAAAAMBOEAADAAAAAAAAAAAAgJ0gAAYAAAAAAAAAAAAAO0EADAAAAAAAAAAAAAB2ggAYAAAAAAAAAAAAAOwEATAAAAAAAAAAAAAA2AkCYAAAAAAAAAAAAACwEwTAAAAAAAAAAAAAAGAnCIABAAAAAAAAAAAAwE4QAAMAAAAAAAAAAACAnTAldQGJwWq1JnUJAAAAAAAAAAAAAJI5g8GQ1CW8sGQdAD8Kfp/8LwAAAAAAAAAAAAAk1JPBb3IOgpNtAPx46Gs2m2W1WmWxWGK0AQAAAAAAAAAAAEB8HgW9RqNRBoNBDg4OMhgMslqtyTYETpYB8KOA12KxKDo6Wicv3tHkpQe048gVhUdGJ3F1AAAAAAAAAAAAAJILFyeTKhXPoa5NS6lQrgwymUwyGo3JNgROlgGw9DAEjo6O1vHzt9Ry8HKCXwAAAAAAAAAAAADPLDwyWpv2XdCOI1c0f2gTFcmTUY6Ojsky/JUkY1IX8DwebfscHR2tqcsPEf4CAAAAAAAAAAAAeCHhkQ+zx+joaNsRtMlRsguAHz/7NzIyUjuOXEniigAAAAAAAAAAAADYgx1HrigyMjJGJpncJLsAWHr4QT86/5fVvwAAAAAAAAAAAAASQ3hktKKjo2WxWJJl+Csl0wD4EbPZnNQlAAAAAAAAAAAAALAjyT2DTLYBsNVqTbapOwAAAAAAAAAAAIDXU3LPIZNtAAwAAAAAAAAAAAAAiIkAGAAAAAAAAAAAAADsBAEwAAAAAAAAAAAAANgJAmAAAAAAAAAAAAAAsBMEwAAAAAAAAAAAAABgJwiAAQAAAAAAAAAAAMBOEAADAAAAAAAAAAAAgJ0wJXUBAAAAAAAAAAAAwOvqzTzp1KtJQZXLn17Ojg5JXQ6eQ0SUWXtO+2vsch8dPh+Q1OW8dATAAAAAAAAAAAAAQBzezJNOi/pXJvhN5pwdHVSlSEaVy59ezUf+afchMFtAAwAAAAAAAAAAAHHo1aQg4a8dcXZ0UK8mBZO6jJeOABgAAAAAAAAAAACIQ7n86ZO6BCSy/8LfKQEwAAAAAAAAAAAAEAdW/9qf/8LfKQEwAAAAAAAAAAAAANgJAmAAAAAAAAAAAAAAsBMEwAAAAAAAAAAAAABgJwiAAQAAAAAAAAAAAMBOEAADAAAAAAAAAAAAgJ0gAEYspkLVtHtFT/3RJpNMiTSnQ45yWr+8l450zSnHRJoTAAAAAAAAAAAAQEyJle/ZFfeqjXSkVx45P3bNYjYrNDhEfn43tffAac3fdF4+QdYXuk+qfIX1Ufa7+t+W67r/YlP9Zxk9vNS6RgrtW3Fap6KSuhoAAAAAAAAAAAAgabECOF5W+fuc0I9L92nq0n2avua4Vh+7q+hM3mrzUUOtm9pCA0qlfIEE3UHFalRUj1qZlToRq/6vcStUXP3fz68CLCsGAAAAAAAAAACvM+tNmY+ukIUFbXjJWAEcL6tuHz2k7+ffUfTjlx1cVaRGZY3tUFif9Gsi86AFGukT+ezTG1OrSC5XGcyJVe9/kVH53vCUi/wTcU6DnBwNioyyJOKcAAAAAAAAAADgP816U+bNrRV5PEAOTuXlVCDji80XsV6RP/eRqvwhp0Lpn2iMlmVHbUVcekfOH/aQ8dFy0NDDit43VebzB2UJfiA5esqYuaYcynSVKZtnzClOd1HYVnc5dRotB4cnpr86ROFLj8rUeolMHk80Wi8rekEdRXv+Ipca5SWLj6LnNFSUf7Ric5SxymY5l8rx8G3QbEX+PFhmW3ZmkIxOMrgXlLFoLzmWriQDS1sThAD4WZnDdHzjBrUMMmpt34Lq0L64lny5T+ce5YUuHmrQtLzaVsimghlTyFVR8r9xU1s27tEPa6/K3yKZ8lbWllGllctBkqrqr5VVFXl4k8oOOSZ/q+TkmVMftyilJsUzKWcak8whwTp/+rzmL96r+WfDZIsmDU7KX6WcetbLozI5UimNk1UhgYE6evCkJs87rN2B/xJiGlKobKMq6lvPW0XSOyny7h1t37hTI07F3d2UNptav19G75fOrFxpHWX5u665i/dq4eN1JZhBGQoVV4+mhVQtr4cyuxkVGRyk0yfOaMbcvVpz9Sm/AmPy1pjZTdQ8pUFSak1Y0Fvjw0/rk1Zr9XuU5OTprY4tSqpR8YzyTuskY2SYfC/6atmSnfrp4AM9mtmz7nva3dlDCwYv1F/l6+mb6hll3rxEb03zU/QzPnNC7wkAAAAAAAAAAP5DbOHvbRnLz5Lji4a/kuRcVQ5vpFTkyXWyFmwjg+GxtuiDMp++LmOJd/8Jf0M2KWrh5zI7vSNT5Z/kmC6tFH5JFp+pil7yrqx1Fssxf+aE3TvLezKlmS/z6bMyVSgQsy1glcy3sstUvfRjF00ylvmfnIpkeWIig+Sa9YlLXjI1mSeT59/BsiVY1qvzFLW1syKNK+VcOk/CavyPIwB+Tv57duvns/k04I0CapTzgH64aJEMqdT8ixYaXdqo0zuPavyaewoyplChckX1wcfvqojbQjVZcEtR107q69EWdetRVqXvnNDA3y7oVuBtPbBKRs+Cmvx9bdV2DdTGdbs0/XKYTOmyqEmD4ho5PIe8h87X8BORssqgTNXqamH3XIo8eUK//O+GboQblT5HLjX/P3v3HR5VlfBx/HdnJpNJSIdU0kkoIYAC0kFAEFQQBOyuva26roqr+6q76qtrXduythXLqliDgIIigogiHQVDLyGQhDRCGqTOzH3/IEAqJIgvOn4/z5OHMLlzyr3n3uSZ3z3njj1T73b11cV3f6c11S31wKJukybov1dGqnr7Bj2flqW98le/EaP1eq8D8pZU/62W4GQ9+eR5muRTqFmfL9Vr2TXy6hCuc8b21BOPxSnp4Q/0aHq12vIoY9+Uofrgf89QQskevf/Zd9q436V2ETGacm4//btboHTnPM0tbuHNrny9+dx8VVw+RlfHF2j68yu1vKJc65ySEdBJjz92vi4MKNXC+av1bnalTL8QjRjdS395IEJhD72rv60/NGvbWeuSZFPk8GG6P6Fcs9N2KHdnmcw29rktdQIAAAAAAAAAgN8JM1euhVeqJj1flv6vyz6wj4zjv6sVfGRNnSjLRzPlKr684UzcrJlyVQ+UrWtM3QsVci17UE7jMnlf9DdZ7IdbkCxLx8GyOCar+pt/ypLwjKzeraja0lXWlO6qTf9E7v73y3Kkaqfcm2fLHXaRvEIbRZA+HWUExbWicKsMnwgZfkffb6TcJ6/8hare+a3MvkkNw240iwD4RJllWra+WK4uQeqR6C0jo1IKCFWyrUhrF6XrtmmbtPdwGvpVtmr/fbGuHdtD/dLytfRgkZauztUUt2Qe2KdvV+zQHlOS7DrrkmEaE1ShOU9+qD8vr6wLVDdr5toDmvnMEF1zZU+9+9c1yjQdGjokXsFVO3Tro1/ps4rDDftJadtG6d9nt1PncENr9rQQyTridcPESDn2b9KfHlqgrw4cennWN5m644nLdJdFKjuysZcGXzJck0MK9fw9H+r5jMPT9Dfro28L9NoLY3X1lT01497Vymj1NGCL4hP8VbgjU3PfnqPnNh4u8yfNyXdo6a3JunKQvz6fV978zGKzQhvW7lL380zJdVDpq3doQd0+8InpoOCCXM2fs1C3fLbvyBLe76+u0px/DdGUsQl6av1WlUuqcbplylvDUqr0x6kL9FX50T4PbUOfHW2oEwAAAAAAAAAA/A6YuXUzf/Nl6fe67IPPOEnhb53wybJ2eFOuzVtkG9y9rs5SuTYulBIek9W3rjbXj3LvLJLljGvrhb+HtZOl95Wy/vC03NlVsnZytKJiq4yUi2Rd8YJc2XfJEudz6GXnGrm25Mvab8LRmccnhaFDBbZlGuLvGwHwCXMrv+ig3EaIQgJ9ZFGlXKU79Y+HdtbbxpDVYshwlWhHrluW1ABF+UgtpoBeURrT11dm0Tq9v7qywTCu2bNZs7YP1GmdEzQ0aI0yi0253abkFaSUGLvmbq05sn3h0oW6eOmxW29LiNUAf6nk66367kD9igqVtjhXtyfVm4Zvi9K5A/xl7tmob0u8FRpc7/YP914t2uLU6NPjNThotTL2H2+/HXmjNs2bp0vmHX3FMAxZLIbK9u5XkRmnqHB/WdRCAHwMlRtX6tr7VtYvWFaLIRXuV0aNlBIaoFCLVO6WJFMypKK1m/VN/ePSxj63rU4AAAAAAAAAAODRDoe/P+2UAobLYlsp14qVLWxskaIvki06tG11WBJlTe2t2jWfyD2g+6GZuBUL5cp0yDp++NGZstVZMqsDZOnQwtLTjmQZ7SrkLimUFNP8No35niNrwlOq3bhUtrjRh4LtPTPlqj1TXp0jGm3slHvpWFUuaxQ+W4fJ67qXZXMcKxZ3ysx9S85NBbL0HsLs31YiAD5hhrysFhky5XS5j4SvPh2TddPFp2t8jzDFBXnLbtXRuzlqDVmPcceDJShYCX6GXBuLtNPV6IfmQWXk1sjdLVAJ4RZpf5UWzF6nTT3P0K2PXaeR63fq63VZWrZ+t1burtDxFht2hAUqzDC1Lbfxs2lN5eeUqNw8GgBbgkKU5G/IFjxQc94a2HyBLj9Ft7dI+9uQcFp81XfMAN0yKlG9Y/wV7G2R5cjOMpVtOdGz2Kqo007XHRO7aVhyiML9bLLVK8ppsajhYXBrT06J6u/ytve5rXUCAAAAAAAAAACPVbpYru0Zh74v/1bOZd8eY2OrLAOGtz0AlkVG8kWyLn1Srqy7ZYn3lrljptztJsgeXX8mrymZ5vEn0BptSDKMQFlTx6h2XppclaNkc5TJtWmRlPSsrD6N8x2bLH1eb+YZwL6Sd6Ntzd2q/ainag+/7K6RLOGy9nha9j5dWt++3zkC4BNmKDoqUBbTrbx9B+WWZAlN0bTHx+psR7E+n/WNntiwX4WVLrnlrdE3TNIdx3kuteFtl68hmdU1qmxyEpqqqqqVadjkW3cylG/4VlOm5uqa83vq/P7ddGufHrpNbpVm7dRrry/Wiz+WH1mKuDGHt02GYaqqxtnkfDdrnaqu96Lh8JKPITm3r9XtMzJbmMDsVHZuW6a3eqnvFVP0/uT2Kt+0XtP+laH0gipVuU3Z4vvoldu6tqGshoL7nqW0+3sovChTr7+zQt/uLldZrSnZojX14eEa1sx7qqob7oe29vlE6gQAAAAAAAAAAB4q6FLZJ5ereuaTcnudI/uU52QN9jr59fiOlrXTY6rduES22C5ybVwvo/sj9Z7LK8k7XoZPmdyF2VJ8QtMyqrbLPNhOluAObas75iLZfP4g9/Z8qdNSuTIDZJ00qPltW/sMYKOjbOe8JVuYVVKt3GtuUm3++bINHSeDVLPV2FUnyhauUb39ZHHu1eptTkmGuozqq7MCnVr6ykzd8kXZ0aWLDT+dVnuMsuqYVTU6aB4Kgn0MqbxBMmvIx+Elw6xWRdXRHxzI2q5pL27XtJdsCovrqGH9U3Tt+d009f4AGfe8p+dbeCjvoeDXOBQEN/qZxedQEH34scKH2yXXAaX/mKnMk7HEum+Crj0nVF75P+q2h7/WsqqjP/LyqT7xKfyGn8ZN7KZo5SAJ5R8AACAASURBVOuZR2brhd315vV6B6qileW2qc8nqU4AAAAAAAAAAOApDCn8JnlPNlQ98wnVzDRkn/KsrEEnOwRuJ2vqONV+OlfuvB1y7T9d1m6NQl7r6bIkhcuZPl2uHo/K2mDJ5Uq5170rl89Y2aO91SbWnrKkxMu59Uu5zUVyB14ge4T9Z/bHJsM/TkbQoQjTOvQRuWfcqNqVI+Q9uNfPLPv3g1VpT4hF8WcP1uVRFpX/uEFzC01JFkVHBMjqLtXarQcaPLfWaBel/vHH39Xukv3aWW7K2rGDkhpH84a/kqLtMpwl2t7cTFvTqYLM3Ur78AtdPG2LirxCNeaMYFmbbilJqtpXriK3oaiIgEZ3ARiKjW2vdvXOfXfJfu0oNWWNiVQP36ZltfN3qK2XK2twkGIcUm1Gjn6sqv8TixJTotThRENTS4ASwqwyS/O0NqfhOtqOztHq1crrTpv6fJLqBAAAAAAAAAAAHib8RnlP/qssNfNUk3a3XKUtrd36M0RNkc3vezm/mS0z9kJZ/RpnUg5ZBzwom2aq9uO75dy+Vu7iXXLnfi3n11eqZk2FbCPvkLVx2GNWyCzNlllW7+tg/TVTrbKkXChL/geqXb9ORvdJsrQUh1XlNSznSHkHj90370GyjZwgc829cuZWHHtbHEEA3FaGQz3GnqO3r42TX0WWnvvvZhWYkmSq9EC13BYfRYbUi10NXw3/Qz8NspoyDZsc9sPJpim3WzLstqPLmzv36otVB6T2ybqsn2+Dmbk+Sd01Ocmqyk07tKRMMgKS9cS/b9aim+Lk33h5dLcpyVRlVdPlnQ9z7srW2gpDQad31Zn+9SvqqMtHhjYMjp25+nxludy+Cbr+3FDVv//DCOykR567WWv+1kPRbQht3QerVOaWrCH+Cqv3PkfsaXpgVICqTMnb3nR2cqOeym1KMqzyORyymtUqPmDK8PVTRL3g1vCN0p8uS1ZArSQvm475PPG29vlk1QkAAAAAAAAAADxP+I3ynvw/stTOVU3aPXKVneQQ2NJV1pROcueVypo6qvlVVtuNktcl78sWXSrXN9eq+q1Rqp75gFylqbJd9Im8ksKavqdqnmrfHKKq1+p9ffKG3PXnKfqPkyUmW+7SM2TtEt1CA51yr7y4YTmHv+bPkXnMlWcNGXF/kVfXctUueEHuVqy4C5aAPgZDYb166x57xaEQ1bDI4R+o1B6x6hPuLbM0W/96+jO9kXV4lLuVvnyHss/trYnXn6OsoK3KNAJ1xrCeGlW1Sn/7so+mXRCmiRO7K3dJphbsPKDcIres8am69zKXVhYXaf4Xu7T0w281t/c5Gv+ni2RNWKeFe6rlGxmjyed1V7fqHD351kbtNSWV52hJhluXnDtes9tv1Oz1RSqoMRQYEaVxZ3dVcGmG/rGsTC0+lfdghl6fv09jJnfTs49Y9PY3Ocq3BGjAmSmKy8rU7sh4HU1fa7X8w2/0Se/zNOWyKfog4gfN3FguV0CYxoztqREh5frg1R3KacPS0GZppr7YUK2hp/XTcze69PamagXFJ+iSkSH67pXvVTv1LI3s3VPXDZMWrt6tHZXNFVKrvH1Vcts66qprB8g346DSv9mkhSsK9efLE3TPXUPlvahQNSHhOmdMVwUsWqRXrON0T1KSrh6zTx/9sEObWmxhG/psFrepzlV5rhZrBQAAAAAAAAAAHij8BnlPkqo/nSn3/jJZA0JOYuEWGX3T5NP3OJv5ni7biOmyjWhFkV1flk/XVmxntJdtQnrLgaMlRbardrQukPS/SvY/X9VMHcGyjvlePq0pA5Ik60MPPfTQqW5EW5mmKZfLpaqqKr02N/2kl2+P76qbB7ZXQGiYzkjpeOira6R6RPvKKMrTV18u01//9a1m76ltMMPWWZCj5UU+6to9URNHdNVZXdqpfN1y3fHKRq3eW6vE0+I1uFecOh/I1Pvr8rVjv4/69oxW/+4RSvQp0cIle5V/cJ++Wp6riqAwDR3cXVOGJ2tIvLcK0n/SY88t0nu7D9/aUKsda3YovaadunRP1LnDumhc/zj1jrAqZ906Pfz8Es3NbzH+leRW7oZd2mD6q1u3eI0ZmKhBsV7KXLxIUz93a/Q5cfLbvlFv/VgutySzar8WLc3WfkeQevXpoknDu+isrgGq2b1NL/57vp5bV9Fy2CzJEhSty8bGyH/XZr22qkRuVWvjTwUyIyI0dFCKLhgYq2Sv/frg5S/0r3UFyrNHafjpsRrW1a5NS7ZrU7Oz+k3tzalQTGqsBnTvqNQIQ5u/36rFP+zRTu/26tu7syafmaR+4W6tm/Ol7p6brW1l7TSod6yGnB4h18Z0fWdP1s0Dg5W9aq1mZTS846b1fTa1b1vr61y0lwAYAAAAAAAAAIDfgjsvSDl5hfn1ka3XRbKG+J28MnFCnpvV8hRBSbphfA85HA5ZrVYZhiGj2WnVvx6ZmZlHvk9ISJBhmseeWP1rY5qm3G63ampqVFJSon43vXeqmwQAAAAAAAAAAAAPtOftKae6CfgFxF6Zdsyfr3r1MgUFBclut8tisfzqA+DFixcf+X7EiBE8AxgAAAAAAAAAAAAAPAUBMAAAAAAAAAAAAAB4CAJgAAAAAAAAAAAAAPAQBMAAAAAAAAAAAAAA4CEIgAEAAAAAAAAAAADAQxAAAwAAAAAAAAAAAICHIAAGAAAAAAAAAAAAmlFd6zrVTcBJ9ns4pgTAAAAAAAAAAAAAQDNWbNl3qpuAk+z3cEwJgAEAAAAAAAAAAIBmPDtr0+9ixujvRXWtS8/O2nSqm/GLIwAGAAAAAAAAAAAAmvHjjiJd9Pi3WpKeTxD8G1Zd69KS9Hxd9Pi3+nFH0aluzi/OdqobAAAAAAAAAAAAAPxa/bijSH94+rtT3Qyg1ZgBDAAAAAAAAAAAAAAeggAYAAAAAAAAAAAAADwEATAAAAAAAAAAAAAAeAgCYAAAAAAAAAAAAADwEATAAAAAAAAAAAAAAOAhCIABAAAAAAAAAAAAwEMQAAMAAAAAAAAAAACAhyAABgAAAAAAAAAAAAAPQQAMAAAAAAAAAAAAAB6CABgAAAAAAAAAAAAAPAQBMAAAAAAAAAAAAAB4CAJgAAAAAAAAAAAAAPAQBMAAAAAAAAAAAAAA4CFsp7oBP1fWp1NPdRMAAAAAAAAAAAAAeIjc3NxT3YSfhRnAAAAAAAAAAAAAAOAhCIABAAAAAAAAAAAAwEMQAAMAAAAAAAAAAACAhyAABgAAAAAAAAAAAAAPQQAMAAAAAAAAAAAAAB6CABgAAAAAAAAAAAAAPAQBMAAAAAAAAAAAAAB4CAJgAAAAAAAAAAAAAPAQBMAAAAAAAAAAAAAA4CEIgAEAAAAAAAAAAADAQxAAAwAAAAAAAAAAAICHIAAGAAAAAAAAAAAAAA9BAAwAAAAAAAAAAAAAHoIAGAAAAAAAAAAAAAA8BAEwAAAAAAAAAAAAAHgIAmAAAAAAAAAAAAAA8BAEwAAAAAAAAAAAAADgIQiAAQAAAAAAAAAAAMBD2E51A34davX934bqqhkFcksyLDb5BIYrrvtAnfuHm3XN6ET5Nvc2d65mXDVKf1/VRfd88bFuSrQe/oGy37xUZz2yWrXN1mdT6tR5mnVrsg69o1KZC1/Xi29+pqUb9qioyqrAmO4aPO5q3XbjWCX5Gg3eXbPnK7309H80Z8Vm7S2pkS0gUkl9z9WN9/5Z5yU6jtnTyrm3qPft81UtyTCs8vINVETiaRo24RrdfMVgRdnrbezapOfOm6Bp21zNlOSl3vd9pY+uj23xLgJ37tu6YvhDWtHcTrAm6Ka0Bbq3l1VH9v+H/rpmxhzdf0a9vV37je4Z9LACX/1K9/e2ybXhnzr3gpe0vbkmSbIP/YeWvnWpOhgN+3qIIYuXn8I699fE2+7Xn8fEybtJCS5tmzZR457P1NAnv9b0KaFquPdPcKwct9xfhzaNj3qqVzyk0X94V1UTX9Xip89Su7rX23K8JFPlWz7Tqy+9oy9WbFFOSa3s7ePVc9hEXX/bNRoe0+homcVa996zen7GIq3bVaiDpo/ax/bQsEvu0F+vPkMhx7i9pcHYNAxZ7e0UEtVZvUdO1g03XaTeHaz1tm54zBvzPuufWvnaJAW0XJ3Miq2a8/wzenP+Gm3PK5fLHqSO3Qbpglv/qj8Oj2x6IW7x2lLHtUnPnTdF30+Zf4xz0K090y/S2LTBSpt3p1KsTfviaePXXbRNq7cV1R0nQxarTXYfPwV1iFRUeKC8m91Rpiqy0/VTVpWCOp2urmFeR39ycI/Wp+eo0my+PktQonp3C9fhd7gq9iknO09FZRWqcZoyvBzyC+qgqOhIBTWu3FWhwuw9yisqV0WNS6bFJm/fQIVGx6ljkP3Y+7cmTxt/2KWyunYZFqtsdl/5B4cqqmOY/L3qv9tUacYP2pRf03wfgpPUp2toy38MmAeV9VO6siua2wmG/ONOU2rUod87Dff/4U2ssvsGKDQ6XtEhjqNjtVEf6joim72dAsOjFR8VJHvjnVBbrvycvSooLlNFtUuy2uXjH6ywqI4KD6i/z5rvs2H1ko9/e0XFxSrUt9E5BQAAAAAAAAAehAC4HvuQv2nOU+fI36zVwX27te7rGXr5zgu08JrpevuuM+Tf6MNo1645mrmpr8YN3axZszbr+qmpdYGuRZFTXtBXI6tlSnLnfKjbr1ugvi/+R1d3skoy5B0UVbdttTZPv15XPJOlntfcpif+0ktRvtXKT1+k/06bqilLd+i/b/9JvQ6nMjU/6Nlr79CC7n/VYx+8qJQwuyr3rtPsp+/T3Te6FD73PvU9dgYsI3Ccnplznwba3aopL1DGmi/05ks36PzFd+vd6deqa4OczUvdb35b/7o4qlHIZMg7pOPxp5BbY3TpC2/oxm6NhprhpYCI+h/AG/LzL9IHj0zXxLTb1b2FoNHa+Xq9uehC1ZqSnJv06jV3aevkd/TMxEOBlOFor+B6x+loXw/931WRp/Q5z+jBO26QOeMz3du7UahYu15pc4o0clxPrUqbq+xJ1yimmU62day0ttxfg7aND0k6oO/SvpTPmHMUtDhNi4pH6vy6g9D642WqfNXTuvy6t1U17Cbd/vzflRJqV3n2Wn0x/d+6efJKPfD+a7qi0+Fx5FbezL/o2mfLdfGjr+rR/nEKMEu0Y8lrevDBG3W33+eaflHkscenNVZXvPyubkmxyVVdqtwtyzVn+nO6fOL3+sd7L2hSbMOAyGvg/+jjx86Wf+P95Rsqv2PVY5bp64eu0d82jdRDz83Smckhspbv1soZj+r+226R16w03ZzcsK6Wry0nhyePX9naK6lHvAItptzOWlWWFykvZ4vSi2OV0jVSvo3bbR5Q4b5aBXfwU1nhPlWHRR65McTwiVK308JkSpJ5UHs371BFaIqSQusiX4vXkV+irrI92rglT+6gKMUkx8vXbpGrqlxFudnaml6muO5dFeFzeMc6Vbxrs3ZVBCshuYeCfLxkuKpUmp+pjK1bZfRIVUff40TshkMRXVLUsZ0h0+1UTUWpCvdmaVN6qRJTkhXqaPh+S2CcUhNDmo4jq1cr/hAw1K5jN3UOa3rLjMWr0WtH9v+h/5quGh3Yt0e7tm+RmdJTcf71DkC9PtRtrOqyfGVmbtM2o4e6R/kcDXVr92vnhu3ab+2gjrFdlOjrJTkrVVaYo6zNG1TeKVXJHRr+4rAExqtnUvu6Ppty11Zof/YuZWx2y9ark4L5CwgAAAAAAACAh+Ljz/q8AxUeEXFoJl9kjDr1GKwRqfdq4q0P6NWz5+ruHl71NnZq0yeztHvAbZo24Rtd8NgnWnNbqvrXfRZu9Y9QbF1S5FKw7IaXAiPjFBfX8ON395739b/Pb1avv83Wa5fFHvlwPrlzTw0cFKtbz/+7Hn77HH18c5Ksklw5q7Uqt5OmvHKZBnY6tHVgl+G66clpivy6XEFOUzre3DyLQ8GREYrwkhQRpdjk0zR0aJJunviwHpxxlt67Nq5BSOAd0lFxcS3P9D02mwIi45v0uylDHc77o4ateEmPzhivd69JaD7wsgcpKjbo0PfO/QqwGXKERCs2LqL59tXvqyQpQh1vf1AZi8dr9qJturt3jwb1VCz7WPOqz9KTU3uo5vx3NXvHlfpT52Za0qax0oZyfw3aOD7M/QuVtjhY5/z3T3JkX6i0L/I17rK649Ha4+XcqOkPvqF9o57Xp8+OrZsRLCm5i3oPOUPhf5isfz42S6Nfu1DhFklyatOKtXINfVJ3nNOjLrALUO9JD+r5oO7aEGRRC5M267GqXftIRURYJUWoY1wX9R0xSNFXTNY/Hv9Mw16aeLQdkgzf9oqNizvmTN9muXZo1epS9bn5Tk3q0/7Q2RmQqrF3P6uAxOUyvJ1Sgz167GvLSeHJ41dW2bzth2aP2r3l8PVTUJCPtqbv0q78YKVEOhpcId2lBdrnDlZSjJ/c6XkqrIhQ9OHw1WKTt6Pu16RZK6txKPB0OBrdoWIe1N5duaoNTlLP5PZHZgTLx1f+QQGyb0pX1u5ChXQNk12SzEqVlTvl3zFGof51W9vaqX1skmyOMsnSiuu4JIuXXfZDHZW3w1f+QYFybNqgzN37FNQlVF4NN5a3w3HCv/QtNm85HMe5u0hSg/0vHWpbdIKqin9SYXGFYv39GvTsaB/qtg6NU9zB/dq8v0Q1UT5157ZbpVmZ2meEq1v3eAUcGXo+aucfKD/bBm3avUfFwUkKrj8sLTZ52e1H+2z3VlRijUp/yNL+A6aCg36N89gBAAAAAAAA4Of7tc7h+pUwFDL8el2UvEcLvtyqBqvYVq3Wx58Va9j5IxQ15HydVfOFZn5/sI3lu5X/zQKt8xuraybFNgk8rZHjde349tr85ULtrqvcGpakTn4Zmvf2AmUcPLrQptG+jyZcOFxJfif2gbY1eoKuHx+sn+YvUm5z69z+P3DaT9Mt941Rzov/0KxftBFWWa1G04DQLNHitK/kNeZ89YsZpfH9szRnVnoLy3g3doyx8rPK/XVoeXy4lTvvYy2LHqfzuiXp3PGd9ePMT4+M19ZybftKCzLjNOm60Q1CV0mSV7IuvWakLCu+0Lclh4+aVXHJCXKu+FDvrC2sty9t6jTyEk3oHX5iM2btnXXFtSPlXjpf35cdP0JuFWu0khNtWv/JW/oup/LouLNEadCUyRoY2yjZPSnXlrby7PFreHdQVHsvHSgqVsNFgZ0qLiiWJaSD/B3B6hBQrX2FB1tx80BDZsV+7a/yVmhUSMPQVZIMH4VHBkulRSo5vNMMb/n4GDpQmKuS6vonlLcCw0IV6DjBX80W37q69qvUeWJF/DIMGW341WQ03tgsV1FxrfzCI+uFv4dZ5R8RIX9nsYrKWvF7oy0NAQAAAAAAAIDfKALg47HGKTnRqr1ZOar/eXr5tx9rfu0ITRjqJ8N3gM4fbdOitK9V3KbkwK2cPTky4jurU7NLHnspqWsnKWu3sg9/rt1upO6bdptil/9VY/r215hL/qj7n3lLn/+YV+9ZtyfCS4mdE2TszVJOg8/Qa7X+n+eoZ2qqUut/9f6jZpe2orOu3Xr90l4N35uaqtMue0O7m3xWbyjozLt0d/90PfvUV9p/kvK3hu0p1ZZZL+j9zeE6c3hyg5DQXTBfH38brHPHny67EayRE4aq+LM0raxsZdktjJWfXe6vQgvjw5Wh2Wnr1WX8eepktSj63Anqte0Tzd7StgTYlbNHOUaiujR+1m0dR1IXxbizlXmkcqs6Xf1PPTGmTNMvH6Q+Qyfomrse1csff6edZW1MnxvX1SlZMa4cZRU0HKC139yvQY3Pg9RBun/JcaJQI0wXPPq8LnPM0S3Dz9Cg867Q7Q++oBkLN6momZDu5FxbToBHj1+LfHwdUk2Vquvvx5oiFZTY1L6DvyzyUnCHQNUWFag1OWJ9ZnWVquUjX0fz4aLFx1cOVavqSOV2hSYmK9yyT1t/XK21P23Stl3Zyi8+eGi59J/B4uMjb7NaVTUNCzJLMrR25UqtrP+1aq0ySlpToakDWesbvnflSq1cvVWFxwuaTacqCrOUX2FXUJDvceY1m6otz1NOYY18gwN15Neis1rVTqt8fFt4NoCXr3y93KqqOs656KrS/qxcldmCFHyCN0sBAAAAAAAAwG8BS0Afl1tut2TUj8rNfVrw8deyj3pJA3wlyVt9J5yrwKvTND//PF0a0fpc3TRNmaaplvIG0zQli1HvQ3NDwf1u1ssLrlbBljVauXqNVq/4TP9440k9PuR+Tf/XFepygkvFut0uyTAafUDvpa7XTm/6DGDDRx2aPCi0GdaOuvDZps8ANryDFdXcbjLCdN69tytt4hN6ftlgPdyvzd1owCyZpT+e/vmRoNddWy2F9NC4h17SXWfUX87UpT2fpmlNx/N0b+qhtgaeOUEjH/6r0r69V0PGNH7ya3OaGSsnpdxfh+bGhzP9E83a2UtXnhtzaHxEjNGEM57Wi5+s1a3d+6mFuKYp05QpU2ZLWZQpSYYs9Sv3TtT4hz/WuXft1vpVK7VqzSotn/5nPf9YjP7w3Ou6f3iHViyi2wyXSy41Pg8kW7+79EHjZwAbFvmFHv8yao0cob/890zdsneDVq9Yo9Wrl+mD+1/R4wHj9PgbT2h8TN0IPYnXlrbz7PF7aGgZDV6p2leoMu/2iq17Bq0tKFTBu3aqoCROgSG/wBLX9ZcUtwcrtluwOlYfUFlZucrLSpW/M0e7be2V2K2TOnj/vICy8URXIyCmmWcAG7LaW1OPId/Irs08A9gir8bD31mobav2Hf2/aUpe7dQhvrNiAhqNX7NKuRtXKe/oCzINu/zDkpQcWT8sNhv803IrGxVfkqG1KzMatMXiE6KYzvEK4a8fAAAAAAAAAB6Mj0CPx7ld6Vtcijs/4cjOcufMU9r35cp336i+sw5v6FJ1pamZn+3RRTfEt3L5WYtiEmKkTzdrW5UU7dukcu3cmiHFDVGTR+gaDoV1G6Lx3YZo/JV36P6db+jaC57WvxacrxfHt/kppZKqtDl9hxR/bpO6/n+eAXyUNfZiPXDjJ7rw0Zc16cMzTizEq2P4j9ZDafeqv5ckd7bS7vqjPu85VQ9c3E0Ndrdri2bNXK/KnRt1Ya/pdS+aclZXyZ62QPvOntx0aeLGmhkrJ6XcX4XmxkelVs6co8yqQj1+dk89Wfequ7ZKNZvS9P3UfhrRZEw3zxqboFjzU23a5tT5pze9LFXt3KIsa6wSOjYdhdbAOPUeHafeoy/SzfcWa8nfJ+mmJ9/RpKF3KqXNGZ6pss0btceeoE5RjaKyE30G8BEWtYvqqeGTemr4pGt198H1evbSS/TYfy7Q2EcGyUsn89pyAjx6/LpVcaBCcrTXkUm6ZoUKCw/IXXlQG1btPbqp6ZZRsF+1IaFNl3NugeHwkUOFOlhhNntjjLuyQlWGQxHNhLpWbz8Fh/opODRSsa4D2rNxo3bnhKp9YuAJXftcBw+oyuIjR+Ng9//rGcC2ECWkxirAkKRqFWzfqiK/WMWFt2s6dg1vhSV1U1Q7Q5Kpir1bteNgB8XHtleDVbBtDjlsLh2sqJYZ5Gi6X2orVFFrlcOn4RFrEHrXFmvXlr2yRscryp8/fQAAAAAAAAB4NpaAPia38ua9qpk5XXTe2E51H167tGN2mtbHXKPpn8/TvHmHvz7XWzcladMns7W11SvQWhQ24lz1rfpSr3+UocYrabrzPtdbc/er5zmjdSj3civv6+f1l8fmNnlOr3dcD3UNqlVpWWWbn18pSbUZH+i1L6rU/7yzFHrKAx2bOl/9gC4339Ujb2Wo1SlMc6x+CouLU1xcnOISBuu2R65Tu5kP6OnvShvsp+q1MzU7+3Td+eEXDY7pvH9drODlM/V5zvHWhG1urJyMcn8dmhsfZtkSffRFpUY8NFtfzDt6Lnwx51Gd7VyotEUlrR6L1uQxGtNpr2ZN/1x5jXeJM0Mfvf2NjKHjNCyorvLqDXrvgXv1+g9VDbe1BKl791hZSkvUmhXKm6j4SW++uVS+Z52nQa0Mr4/HlfGpHr37BS1p1CCjXbJSE71VXlJad+6fzGtLW3n2+DUr87W3yK2A9sFHZqW7ywtVWOWnmO691KvX0a+eyeGylRWoqA1r6hs+IQrxqVFhblGjZwxLMitVkFcsBXZQkO3wS/uUuSNLJY0v+lZf+flY5HI6T+g6LvcB5eaWyhLcXoG/2J0Cx2OVl8Mhh8MhhyNQ0YlRshZmaE+TzkqSIav34W19FBKXoFDnXu3MOdBwVQzDXyEhXjqQv7eZZxu7dSA/X+W2ELX3b/QnTV3o7XA45PCPUEKMj0ozM7WvyUECAAAAAAAAAM/CNJj6qkuVn5enCrlUtX+PflzwX02bvkIxN7+lq5LrPk2vXa+ZszKUcsk0DUmMazCjKeayKer19lv65IdblHJG6xa/tXScovvv/FyXP3Glriu4Qzee21vR7aqVu2GR3n7hFa1Mul1vX3a4HotCQg1tfe9B3VZzUFMvHazkDt6q2bddS999SjNLT9edQ1qx7K27SsW5ecqzS86Dhdq5+jNNn/aOtve+X+9NjmhyV0BNaa6ysy1NXjccIYrs4HucuwhcOlCQrezsJlOYZQ8MV1hLM7Ecp+mP94/X57e+oixLO004Xp9ayTv1Jj1yzQJd/vcndNasxzQ82JB0UEs/nqeSgffoktPjG85ojL5cE164UGmf7tTlt9R7ZnBrxsqJlPtr0KrxYWrfgo/1jW2Unp+UorgGYWmYLhs7TX+cOV/5512iVq1abO2iax+6TguvuU+X37pbd1w9SqkRdh3M+lGfT39eb+0aqIc/GHd0H3qFyb90iR656w7V/M/NGtsrRgEqV/b6z/Xiy6sUetYN6nncq5tLB4tylZdnk1lTrrxt3+uTV/6ttJKz9dTdo+pmMB5lVhZrRI0cXwAAIABJREFUb3a2yhqVYljaKSQqWD4t1GIJDVHt2nt17601+p8/T1S/hBBZK/K06evX9exCu4Y/3lcO6YSuLU3OTcMi35AohbTUmMM8efzKJWd1jWoskumqUWVZkfZm56nCP07dw+xHtikt2CdnYJzC/R0N7zHxDldo9gYV7KtUeEef1s3CNXwVmRCp/Zt3auPWKsVEBsvPbpGrulxFe7OVWxmohO7tj9Rj2L1klu/Uzm2m4qJDFeBjk1w1qijO1Z79hoI6BbTq7ix3bY1qagzJ7VJ1ZYkKc3JU6AxRp9iQpr/c3U7VVFer6T0EVnl5245bn9tZo6rqpkujy2KTt1fLI8DSLkqJEfu1cdduBffopOBjnZfWQMUkdFD61p3KDuqh2COBrkWB0QkKK9mm7Zvc6hgdriBfLxnOSpUV5iirwKUOydEKOuZANOQIT1B0UboydxUqoEto65eoBwAAAAAAAIDfGALgemqWPqIxgx6RDIu82rVXTMpgTXjqY11/TvKR5YIrls/UZwV9ddv42Cahh6XjOE0e8JyeSVumu84YrtZNIPRW12una2bMdE1741Xd+fZuFdfYFRSbqqETntPM60crvt6qm/Yet+nNt4L1/Evv6J5LHlZ+ea3sgVFK6j1Kf33nT7q4FUstm6VzNXX4XB2afRWg0LgeOvOql/XYVcMV02S2ba02vHiphr/YtBz70H9o6VuXHnsJWNcezbhphGY0+YFNqVPnadatLYVHhvyH3Kl7Rnyl2z8/oblwLXCo1x8f0ZVfXaG/Pz5Kc548S0ElC5W20KURT5zdtC/WrrpgUje9/vEsbbjxHvWqO2NaM1bM4raX+2vQqvHhztJnH69Q0LlvNjNT1kf9J49X2BUzNTfrQl3fquW/Dfn1naoZHyfr5X+/rWdueUU5ZU75dEjUaSOu0fTHr9SgyHrlWMI0/qn35PXKC3r9qRv1UnaxqgwftY9N1eCLXtQ7Nw5Ru+NV6dqjd68fpnclGVaHgiKSdPqoP+u/N1+qfuFN47DaZf/QucP+0bTlvuP10g8vaEwLaZLhP0QPzHhVkc+/qpduf1f37quQ6R2kjt3665zHZ+jWcaEydCLXlmbOTcOh815cp2ljjx1tefL4lbNIO34skiQZFpu8HO0UFNlFnSKCdGQFZmexCoql4E4hTRcYMHwVGtpOewsKdTAqVn6tXBHB6h+r7qm+ysnOU9bWHFW7TFm8fOQXHKmunSIUWH9JZmug4lO6yJ61Vznb87Sz1i3TYpO3b4Dad0pRxw6tWPbArFLelh8OPT/XsMhm95F/cLS6dQ5XQDOH312aqfU/ZDbT8A7q0jdZIcdMgE0dzNmoH3Oa/sQSlKje3cKPsVCDRX7RCYos3qRdu0Pk3yn4mH942IJiFd/hJ23LyFJwapz8D58MXsFKSE1Ru5wc5WduUVaNS7La5eMfopiUjgrzb8U+M3wUkRitovTdyigIUNcmzzQGAAAAAAAAAM9gmKZ5MtO1X5xpmnK73aqpqVFJSYkiIyNPdZMAAAAAAAAAAAAAeIjc3FwFBQXJbrfLYrHIME7581OPafHixUe+HzFiBM8ABgAAAAAAAAAAAABPQQAMAAAAAAAAAAAAAB6CABgAAAAAAAAAAAAAPAQBMAAAAAAAAAAAAAB4CAJgAAAAAAAAAAAAAPAQBMAAAAAAAAAAAAAA4CEIgAEAAAAAAAAAAADAQxAAAwAAAAAAAAAAAICHIAAGAAAAAAAAAAAAAA9BAAwAAAAAAAAAAAAAHoIAGAAAAAAAAAAAAAA8BAEwAAAAAAAAAAAAAHgIAmAAAAAAAAAAAAAA8BAEwAAAAAAAAAAAAADgIQiAAQAAAAAAAAAAAMBDEAADAAAAAAAAAAAAgIewneoGAPj5EhMTT3UTgBOWkZFxqpsAAAAAAAAAAIDHYAYwAAAAAAAAAAAAAHiI3/wM4OrqahmGIZvNJouFPBu/T8ygBAAAAAAAAAAAOHFut1tOp1OmaZ7qpvxsv/nE1O12y263E/4CAAAAAAAAAAAAOCEWi0V2u11ut/tUN+Vn+82npt7e3qe6CQAAAAAAAAAAAAA8gCdkj7/5AJiZvwAAAAAAAAAAAABOBk/IHn/7PQAAAAAAAAAAAAAASCIABgAAAAAAAAAAAACPQQAMAAAAAAAAAAAAAB6CABgAAAAAAAAAAAAAPAQBMAAAAAAAAAAAAAB4CAJgAAAAAAAAAAAAAPAQBMAAAAAAAAAAAAAA4CEIgAEAAAAAAAAAAADAQxAAAwAAAAAAAAAAAICHIAAGAAAAAAAAAAAAAA9BAAwAAAAAAAAAAAAAHoIAGAAAAAAAAAAAAAA8BAEwAAAAAAAAAAAAAHgIAmAAAAAAAAAAAAAA8BAEwAAAAAAAAAAAAADgIQiAAQAAAAAAAAAAAMBDEAADAAAAAAAAAAAAgIcgAAYAAAAAAAAAAAAAD0EADAAAAAAAAAAAAAAeggAYAAAAAAAAAAAAADwEATAAAAAAAAAAAAAAeAgCYAAAAAAAAAAAAADwEATAAAAAAAAAAAAAAOAhCIABAAAAAAAAAAAAwEMQAAMAAAAAAAAAAACAhyAABgAAAAAAAAAAAAAPQQAMAAAAAAAAAAAAAB6CABgAAAAAAAAAAAAAPAQBMAAAAAAAAAAAAAB4CAJgAAAAAAAAAAAAAPAQBMAAAAAAAAAAAAAA4CEIgAEAAAAAAAAAAADAQxAAAwAAAAAAAAAAAICHIAAGAAAAAAAAAAAAAA9hO9UN+F2pKVD64vmav2ixlq3PUG5hkQ6YfuoQFqXEXgM1/KyxGjuih8Lsp7qhp4qp6n0Z2rhxk7Zs36384jKVVzhl8/VXQHCE4pO7qFtqdyW295ZxqpuKk8BUbXmhcnL2Kjd/n8oOVqqqxi2L3SGfdoHqEB6pqOgohfp5cbwBAAAAAAAAAABayTBN0zzVjWgL0zTldrtVU1OjkpISRUZGnuomtUKFdsx9QQ8/8Y6W7a3S4R1uGIdiraOHwJCj4yD94d4H9edxSfI9JW09NdzlmVr+xVwtTs9Tpfvo/jAMSaZ5dJ9ZfBTRc4TGjR2oeH8msP9WmVX7tOOnH7U5q1Q1x7oCGXYFxXTTaT2T1MFBDAwAAAAAAAAAAH55ubm5CgoKkt1ul8ViOZLp/VotXrz4yPcjRoxgBvAvzrVXCx6+UXe/t0kHTKuCU8fp0ksnavSg05QcHSwfVWp/9natX/aVZr//vr7Y+L1eu2OSvl/1T/3nwbMVZT3VHfilmarOWaYP3/1S28pckj1ESaf3U58enRUX2V4B3la5qstUlLtb29LXaOUPGcpd94XeyNipMVdcrEEdmQ38W1NbvE0rl21QXqVbsrVTeFyi4qMj1SHITw4vQ2ZtlQ6U7FNu9i5lZBaoZM96fVuYrx6D+is52OtUNx8AAAAAAAAAAOBXjRnAvyRzv5Y8eKlunrFdNT7JuuCBZ/T3i1MV0FJiaZZqwwf/q6n/mK3tlXYlX/GK3n/oTIV4cMLpLFihd6fP1fYKQ/6JZ2rSpOHqHNTyfQnOkq36ZuYsLdlVLtM3WeOuv0IDwriP4bfCXbZD3y9Zr/xqyRHWVX37dlOEb8szud0Vedq8Zo22FFRJ3uHqdeZgJQUw8xsAAAAAAAAAAPxyfuszgAmAfzFuFXx2u8bf+bn2OXroptf/q7/0D2rFbFVTJSue0pXX/0cbqkJ13nOf6oXxYWp95FWhT2/uozsWVDd41bB4qV1ogk4fdYX+fNdl6h38KwjRnDla9OprWpzrUkDKRF13UR+1b02W6yzS2o9e1+xNZbJGjtANN52ljieQAVdnf6t3XnlLn367XhkF5XI5Oig+dYjGX32LrhkVL5+2F4ljcRVr0+JvtKnELZ+OfXRm/3j5tWYYug8oc+USrc2plCUoRcNHpCj4BGbGuyoKlLF1u/bk71d5RY3cFrt8/IIVHpOkLkkRandSZtubqsr9Sct/2KXiGl91PnO0Uj35Dg4AAAAAAAAAADzQbz0A/hWkgB6qcpVefuZLFSpIw+6fpqlHwt9KZX79iv56+dka0LOruvYcoDGX/1Wvfp2pSkmSoaABd+vf9w1TkAo0/5mXtaqy7dVbEy/W0zPe03vvHfqa8d+X9ci1p6l03sO66ob/aKvzZHb2RJgqWfulvs91ytJhgC6c3MrwV5Js7dV78oUa0MEiZ+73+nJtidp2F4OpAz++qKsmXKdnv3Opz5X36ZmXX9azD1ylflqhf988UVdOW6eKtnfqd8BU/owr1P+exapp4/sqMtO1rcQli3+S+vVtZfgrSRY/xfftpyR/i1wl25SeWdHG4y3V7t+spYu+04Z8U+0Te+iMgYM1sG+qEoKdyt34vb5evlPl7jYW2hyzUtlbd6rYkaiBIwaoU4vT/QEAAAAAAAAAAH4ZBMC/CFMlC9/R7Cy37Kk36L6LYmWVJLNYy568ROff+JQ+Wr5DBQdqVHOgQNuXf6Qnb5ygS59armJTkqyKvfg+XZ9qlztrtt5Z2NaAUzJ8Y9Sr3wANGFD3NXikJtzwuN54eLS81r+rD9ae4gTYnae1K3epWn7qcfZIxXu37e2Gd7xGnt1DfqrWrpVrldeW8K5ilZ6b+rzWhV2p6bPf0oPXT9aYEWfpnCk36eF35ug/V4Tppxcf1ts7XG1r1O9CjTb/tFVtHj1mqTIzCuU0HIru0U2hbX2Ur1eouqVGy2E4VZiRqdK2nBDOQm1ctUn7fZI1ZOQQndY5Xh0jIxQZnaCufc7UiDOiZSncph0FtS01Xu5W1+dUrVPyDolUeFCAfFidHAAAAAAAAAAA/D8jAP5FVGjlwu9VJocGXDJJSYfSX+1f8L+a+lq6DjQXVrrL9dNrU/XoguJDYa81SZMv7i+HyvT9wpUnaTaqocBuPRRjFCk3//AS0aaK176pey8brX6pXZTcpacGjbtR/1yYI6ck1/YXdX7XIXp45dHIr3zurerZqauumJGnw11xbX9R53cb2eqWuAu3aMs+tyxBPXRGF59WLI3dtC8+Xc5QjyCL3Pu2aEth6xPgsm/e1SdZHTTx3qkaFNyoZiNYg6e+qrTP3tD1SXVrApsHtPHjB3XVmAHq0bWLuvcZoQvvekXLCw4HxNWaf3t3pdyaph9m3K2Jg3qoa7feGnXdi1pVlKNFT12js/t2V9fUQZr8wGfaU/c2V/rTGt11jJ6aP1ePXjFSfVK6KKXvaF3z5ELl1MueXblLNO32STqzd4q6dO2pQedeq0dnbzsyJlzbpmlcyrl67vtleuW28RrUs5u6njZMFz0wR7vqZZrufSs1/S8XaUSf7urS7XQNm/RnvbysQEeqcq7QQ4NTdPmbP2jhP6/TmP6p6tqtt0Ze+aS+znNL7jy9e3lPXftxkYrTrlPX5DH654bWheRmea72lpsyfGOUGGFv9bGqzx6ZqBhfQ2b5XuWWtz4Brs3bqd0HfRTXI0WhTao25BvTV2POH6vTIw6n0i5lLZ+lWSt2KX/TEs2b9anW5LolOVWSuU7ffTVPcz6ZqU9mz9WC79ZpT1ndPnBmafnsBdpY4lblziX6ZOZ8/VTkllwHlJO+TIs+/1SzZn6iWZ/N1zdrd6r4yLFxKWflLM1asVsle9ZpyfzPNOuTWfpswTJt2VdvnvVxywEAAAAAAAAAACAA/mW4MvTTpoMyrcka0K/DoXDTna05b3yhgmPllK58zXtztnLckmSoQ7+BSraaOrj5J2WcpMmo1Vm7lGcGK7QuCTNLv9RDNz2u5e2v1AtpX2rR5+/qwWElmnHHVL2z2y1rwkANiCjSjz/urgsKa5W+cr38I0O0edV6VR0qRcU/rNHOgAGtbkdNXo4K3Ya84xPV8USfvWrtqMQ4bxnuQuXktXZBYqe2rPlRB/wG6Kz+vs1uYfgnqEdysA5N3nQrb9bduuqBr+Uz5SmlLVysua/dps5b/60bbn5NW12SZMhqtar2h9f0Wv5E/R979xkfVZn3f/x7ZiZlkkx6SAKEhEAIhk7oIEWzArHi/lWUtSCyKnjvire7rgsIrmIBV3Ttt7rrCiJWiooiCwgoXUIJhBIphp5AQvokM3P+D4BAaBsgGJl83q/X6OSU3/zOmRmefOe6rjcXZmjF9HsUtvxlPXLHo/qi4aP6eHmGFr1ytY58PF4vLyg51r+PbJ49+viF2Yp65GMt25Chuc/20P73Htafpv58NFwvX6O/3/uA3v65nR559ystnPexnrlO+urP9+iJ4z8WsNhk9ezTjIkfSHe9o4Vr12nRS1fpyCdj9eyXh48eU7lJbwwfphfXNdHv3/hCC775tx7rtEf/9/v79WbW8QTRJpvNpW3/fl7fNBql6T+sV8bccWq7/V09/tJilVka6JbXP9Oodj4Kuf5lLVv5iUZeUbM3z1WQryKP5BMZpQteftoSpqgIH8lTpPyCmo9BLsg7LJdPlGIizzYc1yqb9eQfAhiyWAyZR35SdnEjpfbprZRIi9y5mVq2JkdqnKo+v+mv3/TtpCbGbv24fLPyPZJsjdQ5va+Sgy2yN+2h666/Sinhho5sXa6V252KatdLV/e/Rld1ayF77jot23Dg2EhqQ4ZhkefQZmUeilCHq6/TTddfpSsC8rTpxy3HZgUwa1AHAAAAAAAAAACAAPjScOfpYJ5HhjVWjWKOBWSuzVqfVflfpnI2VblpgzYfS3OssY0UazXkyT2ovPMOgD3yuN1yH39UFGvvmul64pkvdKTZIP2249HRjkZQH43/coE+e/536t4yQU2atVX/Bwark3udlv5YLNlS1KNLkLJ/XKdCU5I7W6vWeNTjlmsUumGVslySVK51q9bLp3PPGvdWUlgsj2nIERqiC81/JatCwhwyTI+KC0tUszHALuUeOCw1aKTYmgxEde/QjH8vlLPPKD1zX28lN26oph1/qzF/uVHBmdP0ScaxCM+QZHbU4BG9FONnU0jr63V1C+mg35V66PZWCrX5KvrKa9UrqkRbNu/RsdxYMp2KvPaPuq9jpHytAYpL+6OG9TD145f/0R6PVLpkqj76KU6/+9to3dihqRrGtVTfB/6m33c4rK+nzVWuefTFDU+JIgb+r4Z3iZafxVfRV/5WafFOZW3IlltS2Q//1r83RmrwU0/r9i6JahTfVtc+NkFDEzZp6tQVx4J8Q5Kp0sT/p78Mbq0wm0X2Jum6+coQFWzaqN1ui/wcwQqwGTL8ghQWFix7jd48U86ycpky5B8QcBH/6FgUEOgvQ6bKy5w1nhbdWe6U/AMUUO2FTXncLrlcJz3cJyoahiGzPEBx7ZsrJjxMQb6SNTxFffunqVvLGIU6guQIjVGL5jGyFh9UbqkpySKbr4+sFsmw+sjX11c2w5CjeS/1v6anWjcKV3BQkEKimiqpUaDKcw8e/U4d5wlXYps4BfsYMnxCFN8kUkZJgfKdknQedQAAAAAAAAAAQL3GCpW/OuZ5r/d7Jq7MFzWg5YvVthnWADXqMkSTn31Y7Y+vuWu1qmj9R3r29dlauW2vjpS7j6136que5U6ZcqhDz1RZnv1RmZU3q+fhH7VyT4oG/babKqa8ox93u5XaeLNWrXGq3fDO593n+U/9fLEMWa2G5PHULDB2ZmlDtqlmA9sr5KRm/VPaqoXlU2VtzpOnU7gkyRLXXE2Ph8qGXUEBFvlGNlPc8ZDUCFRggOQsKz+pnUC1atv8RAhuBKtZ8wYyZ27XLrdbRRuzVBTQWh2TT/qqWmLUpk20Kuds0k8uKUKSDIdatIw7KUwPUnCQofKycplyK2fDRhXYO6h7O/8TdayJ6twxQq9nZOhndy+1OFpcMS1b6MTM2IaCHEEyykt1UteXFcMwJPOU75UnT+vnLlZ26YmtlgYdNPDKZrIfu3YjKFyhJ69VbHGrKGeDNu08oILSCrmOLwxsCZX7HB8mi1mqvZsytX1fvoqdlVXrCRsBbrlNVX0JjKAQBZ8UqFt9fGRRhdzHDqppHQAAAAAAAAAAUL8RAF8K1kg1iLTI3LVfe/a7pUSrZGupNi19NHt1xTkCXkM+V7RVy2Pvinv/Hu1zm7JENlDkeQ6TtTb/nV6edIviLJJUqW1THtHj33fQ6FdGq3/4iaSocsMruv8P/5LP7c/rg3euUlKkXdbSL/Rg6p9UfKwnR+ceal08XWt+cqvDjhXa3LSTOsa0V1nyT1qSUaRhljX68UCS0rpF1LA7iwIdQbIYpgoLjsithhc4KtStIwVFMg2LgoIDa1jDqgYxDaSFu/RzmdQ26NxHm2XFKnEbCnRUr28EBCrAMLWvuFSmjgbAhtV62hfKYrVWz+UMVX//jQAFBVqrHeDn7y+Vl6rcNFVSVCIFOFTtEBkKCLRLJSUqOV7MsMl2hm+zeey/xUUlMou/1Mj2X1e7DtPtkicqT4eqmjJktZ3yYbvoYNGQn/3YyN3SUnkUeoGjvj0qLT02ktjuV+O27AH+0v5ilbilsOP3yBKqpO591dhtSjJ1aPNSbTw1xLXaTno/TRVnr9DSTU416tBTXePCZLcZ8hxYozk/HD7Hq5fr5x9/0PrDEWrdNU1NIwLlYzFVsHGeFuw65VDDctpn+MQ1nkcdAAAAAAAAAABQrzEF9KVgTVSblEAZ7q1avvLQsXVaG+vGof0Vda47bonSgKE3qrFFkkwdWrlc29yGAlPaKPE8EzPDP0YtWrdRmzZt1KZNRw167M8a4PlKE15YpCNVYZ9bPy1YoO2B/fWHP12rlpF2WSV5Cg6r4KQwzBLdVd3if9aatQe0YeU6OTqmqoktSh06RCtz9QYdzlilrQ27q3uTmjfpG9tIkRZTzl3btfdC1zd279H2XU6Zlig1iqnJfM6SZFPLrqkKKV+mOQsPnzmML12jD/7xsdYecsuwOxRkOxrEnpwPmiXFKjEtpwXD580sV2lptcoqLSmVAgIVYBgKcgRKpUUqqXaPTJUUl0pBDgXV6MUNOYIdsoQO0NOzvtJXX514zPlmruZ++JDaX/g83DViCw2TwyJV5uUeXS/3QnjylZtXKVkcCgut+W9XgqMi5ec6dZ1oHwWGRSgyMlKRkREK9v8vcbJZrgP7Dsts0EJtm4bLbjt6vLvCee71d1152nugUiHN2igpKlA+x77bFc5z/RDkEtYBAAAAAAAAAABejwD4kghQ17QecqhcKz76XNnHFnyNGDBeL9zbWkFnyposQWo97O8a1z/86Kg/d7Y+/2iFyuVQj7SuCrjIjoyIAfrTH3uq8LOn9PKKkqrtTqdTsgfLUZWfuvTT7Fla65JM81i0ZG2m7t0itHHFTC35sUTtOreSTVY179RWnrXLNGvZegV266mW5xEiWqKS1TLSIk/+Bq3aWnYBIZapsq2rtSHfI0tkspLPmaxXF9BriG5NLNa8iX/TV6emz+6DWvDMX/TUW9O1LM+U/FLUtoWh7Rnrqq2zWpaZoc2ehmqdEnFxA2TNIm1Yt01VXXjytGXLQVmaJqmp1ar4Nq0UXJqpjC0nxYyePVq37oB8r2itpBrdc6vi2rRSaEmODtsS1KxZs2OPRDWw2xQcHVk17XGN2zbP7x0zHLGKDTJkluZoR7UgtuYq9u9QTqkpIyhWsY6aN2xr0ExNgyu1e8M67Sk9Q9+uQhUU/bdfIbjldkuGj++JUcFmqXbvytU5zzSPTs/s4+tz4nNSsV+79jlr3H+t1gEAAAAAAAAAAF6PAPiSMBR29Z26sbFFzg1v67nPdh8NiYww9frrdM1441H9v27NFBlgky0gUs26/T89+vpMTX+857G1V93a/elzenuDU5bGN+rOq8NqYXlPixrf8lc90Hq/po1/TWvKJMmqxHZtFHRwvqbNyNS+/du17P0/a+zGK9QvxtTurA3aW+SUZFPrHp1lrPxQM3e0VJf2R9eR9WvbWSk/f6Gp3zvVuWd71XQM7tF2YpXaJUG+Ktb6bxdq1/nmWM5dWvjtehXLV027pir2fD7Jfh300AuPqHPpV3rkplv1p39M05fz5umrj97Q6CE3acQnJer7xAu6L9kmWeN10z1p8l/0ssa+v0I7DhzQrjWf6Mlnv5Sz890a3PYiZ1G32FX4zQv6+9xN2nMgR2s+elZvr/RV9xvSFG2RAnrdqTta7NEHf5uobzbu0cG9W7Tg1bH6vw2xuvme/gqv4QfDv8edurNltt567Fl9kbFL+/ft1NqvJun+G6/T/e9lnzvEPJkRoMAAqSRrqb7PzNLP+TUMgo0QJTSLks0sV07mZuWdc9jsGbjytDkzR+WmTVHNEqqtx/xfWcLUsktbRbt/1ooF32l11nbt3rdf+/b8rOyNq7Xo24XaVByqpORGOutAYCNA4eF2eQ7u0E+HSlRWfEi71q7SHnuMglWmI/klqnCf4V7YwhQeLB3ela0DxWUqzd+tzBXZskSHy3AWqqDYKVdNbmEN6gAAAAAAAAAAAEgEwJdOQFeNePQaRSlf3z31kF5cWXBslGuAml0zQhOnzdPKzK3amrlS86ZN1IhrEo+N8jVVsPLveujp75SvKPV/dIS6Xuzw3+NsSbpn9N2K3/Gexv/fRlVIcqT9Wc/e1VgZT/1WVw24Wy+sb6/HJ4zWfbe2UtHno/S7yatVKcm/Y3e1L9yr3LjO6nhstK0R0l4dmx5QzuF26tnpfJs0FNapv3rGWuXJXaaPP1+jQzVNIV2HtObzj7Us1yNrbE9dk3r+AXlAmwf03qx/6s+/cSjro4n604gRevS5acoMHqix02bptdsS5SNJsij6+on699N9VTTtf3T9lVcq/fdvaXfqX/Sv1+5SwsVOnWyE6pqHhsjn00c06Orf6HcvZKnZ7/+hZ285ti6yXzv98Z03dV/DVXpmSJp6XXWrxv4nULe+8r7G9HLU/Lp9UjTinXc1MmG9XrxvoK7sna5hL6xW7H3/pzeGJ9V8TV4jXFcNuUXN93yg/7n7Ib2XWdMk11BgQhslhVrlKdymlat3qbhFbWSBAAAgAElEQVSmU0F7irVz9UptK/TIGpqkNgmB5/1+W0Oaq2daH7WL81Phro1avewHLVu9Ttv2lysooaP6XdNXbaL9z1HXosiWqWoZVqLNi+Zq7qIM7fW/Qp06tFTTKIv2ZSzW2r1nGNlsBCupY1vFuHZo6bdzNX/VTpnNUtU+pZka+R/WxsWrtKukBglwDeoAAAAAAAAAAABIkmGe71yudcw0TXk8HlVUVKigoECxsbF13dLZmYf13bjBevCDbFXYW+jmsX/X2FtbKfhsKZNZqMyP/qZHn56hrWW+aj7kDU1/sm+NR3lejlwHl2nK218pu8yQI7Gvbr65j1qcY31XV8FWfff551q0vUhmQJKuve936t7gIkfh1hF31ku6btBn6v7+Qj3R5fK8hvPlKczWD4vW6YBT8m9whTp1aqmYgLP/DsVTul9Zq1dr88FyyS9a7fr0VPNgfrcCAAAAAAAAAAAunX379ik0NFS+vr6yWCwyjF93WLdw4cKq5/369VP9SJ3qihGuvk+8p5fM4Xp0WpY+++sgLfxgoG6/4yZd06O9mjcKlb/KVbAnW2uXfquZ0z7UnI2H5VagrrjjBb39hHeHv5Jka9BNd9zj0fSpc7XtpwV6/+W1at6xq1Jbt1B8bIQc/hZ5yot0aN8ubdnwo1ZmZOtwhWQNbqEBvxusbpdp+FtfWYKbq1svj1YszdT+g5v0/bc/Kzo+UQmNYxQZGiR/H0NmZbmKC/K0f/dO/bTrgEpcksUeo9Y9uhL+AgAAAAAAAAAA/BeMAP5FlCr7i5c0/rkpWrbPqeM3/PivBU68BYb8GnbXnX8Zr4eva67amvn5cuAp2qGlc77UwswDKvecuB+GIck0T9wzi13Rbfrp+oHdleC4vMPA+jgC+DizPFfb1q1V1u4jqjz5XyBDUrW/fRUS11Id2iYp8qwL9AIAAAAAAAAAANSey30EMAHwL6nigNYv+EbfzP9Oy9Zt196Dh1RiBCmiQawS23ZX37QBGtivrRr41nWjdcVUed5P2piZpS3bdml/fqGKy1yy2YMUHBaj+KSWSmndSomRfue9Bix+jUxVFh3Unj17tW9/no6UlstZ4ZHF10/+ASGKiolVw0aNFOXw4f0GAAAAAAAAAAC/GALgX9hlHQADAAAAAAAAAAAA+FW73APgy3sOXQAAAAAAAAAAAABAFQJgAAAAAAAAAAAAAPASBMAAAAAAAAAAAAAA4CUIgAEAAAAAAAAAAADASxAAAwAAAAAAAAAAAICXIAAGAAAAAAAAAAAAAC9BAAwAAAAAAAAAAAAAXoIAGAAAAAAAAAAAAAC8BAEwAAAAAAAAAAAAAHgJAmAAAAAAAAAAAAAA8BIEwAAAAAAAAAAAAADgJQiAAQAAAAAAAAAAAMBLEAADAAAAAAAAAAAAgJcgAAYAAAAAAAAAAAAAL0EADAAAAAAAAAAAAABeggAYAAAAAAAAAAAAALwEATAAAAAAAAAAAAAAeAkCYAAAAAAAAAAAAADwEgTAAAAAAAAAAAAAAOAlCIABAAAAAAAAAAAAwEsQAAMAAAAAAAAAAACAlyAABgAAAAAAAAAAAAAvQQAMAAAAAAAAAAAAAF6CABgAAAAAAAAAAAAAvAQBMAAAAAAAAAAAAAB4CQJgAAAAAAAAAAAAAPASBMAAAAAAAAAAAAAA4CUIgAEAAAAAAAAAAADASxAAAwAAAAAAAAAAAICXIAAGAAAAAAAAAAAAAC9BAAwAAAAAAAAAAAAAXoIAGAAAAAAAAAAAAAC8BAEwAAAAAAAAAAAAAHgJAmAAAAAAAAAAAAAA8BIEwAAAAAAAAAAAAADgJQiAAQAAAAAAAAAAAMBLEAADAAAAAAAAAAAAgJcgAAYAAAAAAAAAAAAAL0EADAAAAAAAAAAAAABeggAYAAAAAAAAAAAAALwEATAAAAAAAAAAAAAAeAkCYAAAAAAAAAAAAADwEgTAAAAAAAAAAAAAAOAlCIABAAAAAAAAAAAAwEsQAAMAAAAAAAAAAACAlyAABgAAAAAAAAAAAAAvQQAMAAAAAAAAAAAAAF6CABgAAAAAAAAAAAAAvAQBMAAAAAAAAAAAAAB4CQJgAAAAAAAAAAAAAPASBMAAAAAAAAAAAAAA4CUIgAEAAAAAAAAAAADASxAAAwAAAAAAAAAAAICXIAAGAAAAAAAAAAAAAC9BAAwAAAAAAAAAAAAAXoIAGAAAAAAAAAAAAAC8BAEwAAAAAAAAAAAAAHgJAmAAAAAAAAAAAAAA8BIEwAAAAAAAAAAAAADgJQiAAQAAAAAAAAAAAMBLEAADAAAAAAAAAAAAgJcgAAYAAAAAAAAAAAAAL0EADAAAAAAAAAAAAABeggAYAAAAAAAAAAAAALwEATAAAAAAAAAAAAAAeAkCYAAAAAAAAAAAAADwEgTAAAAAAAAAAAAAAOAlCIABAAAAAAAAAAAAwEsQAAMAAAAAAAAAAACAlyAABgAAAAAAAAAAAAAvQQAMAAAAAAAAAAAAAF6CABgAAAAAAAAAAAAAvAQBMAAAAAAAAAAAAAB4CQJgAAAAAAAAAAAAAPASBMAAAAAAAAAAAAAA4CVsdd3Ar4HH45HL5ZLb7a7rVgAAAAAAAAAAAACcJ6vVKpvNJouF8a/1/g54PB45nU7CXwAAAAAAAAAAAOAy5Xa75XQ65fF46rqVOlfvA2CXy1XXLQAAAAAAAAAAAACoBWR/BMCM/AUAAAAAAAAAAAC8BNkfATAAAAAAAAAAAAAAeA0CYAAAAAAAAAAAAADwEgTAAAAAAAAAAAAAAOAlCIABAAAAAAAAAAAAwEsQAAMAAAAAAAAAAACAlyAABgAAAAAAAAAAAAAvQQAMAAAAAAAAAAAAAF6CALg2eIq1a9ksvffKJE146ilNmPSa3v9qtfaUmRdR1FTh9vX66chF1HBv06wX/qnl+Weo4f5JX7x4ln01rn8BNWrjdWvAs3e+Xn99vvZ6JM+eeXrt2PPqTBUs/5f+Pjtb7kvaDQAAAAAAAAAAAPDLsNV1A5e/Cv28YIqmb4nR1TcO1+0NA+Uu2KU1877QBx+7NezOroq4oJjdqZ2rvtf+Hq3ULMR6Ya1ZEzXgwcayBBgXdr6XsMT20dB7JH9+7gAAAAAAAAAAAAAvRwB8kcyiDVq02lDXe25Qp5hjQW1kc/W8+VaFbqyQ1SNJBdr8n9man5Uvjwz5xnTUgOt7Kj6gUhumT9bG2H4K3LNFeYX5Kg3uoptv6SKt+FDfbjskz/63VXHN3bq2pUs/fTdb367LVaVhVVBCL12f3kENfCrOUqObYi3b9c0bSxQ9bKi6hZk6snmuPv1mk4p9gxV9RTNZqgbhVip37Tf6YslPKjYNGQFN1P26a9UpxveUq/Wco4ZbhzfO0+wFWSrwWOQTmqx+N/xGKWHnCq8rdeDHLzX7h10q9XgkRwtdPWigWoefco5Zpl3fz9ScNQdUYXqkoObqc1O62kdaVZ6zVLO+Wq19To9MS4TaDBikq5Mc1bvet0j/mmXRoAeuVkPXXi3/fIaW7jMVGNZEVzQ4MSzYLM7WgplztSHPJdP0UUzn63RTzyay1+/8HAAAAAAAAAAAAJcRAuCL5N67S3uDk5XWoHpoafg1UuuOkmSqKOMrfflzgoY8eJdifUq19Yt3NHNRY40c2EgWS6V27pLuu+NORVoOavE772vFjk66qUe6Om/8WOXpw9U/zqKSDZ9o5pYo3XL/HYr3K1Lm5//UrOWNNezK0LPXaHZSQ5XbtXhOtmJvGqmBiT46kvGJ3imXmkjy5K7UrP8Uqv29/6NO4YaOrP1Y78xaprjhfRRtqVkN8/Bqzf56n5r/bqR6xVh0aOWHen/OOjW+o6OCzxKgmoXrNPc/BWp93/+oe4RL2796S58v2a6WNyZV+2Caheu1cLW/+j34R7X0d+vwurla+FOu2oRbtWLOUpndH9Af2wWpNPNTvTF3ha5olqbYM7+iDq/5RosrOuu+P3RRmOtnzf/XFHkaSpJbu5Z8qcyQa/XAkCT5FqzUlLfmKSPlXvUIJwEGAAAAAAAAAADA5YFJcS9SZVmZ3PYAnX2W5UrlZO9WeOu2ivGVZASoWetEuXfuUJ5HkqyKTk5WhE2SJUzhIZUqLqlQ9RVyXcrZulNhbTupid2QLMFq2a6pCrN/UqFZsxqeQznaraZqGe8vQ1aFprRW3LHMumRntnIbtTk28taikCtaq3H+Du0qqt7FuWqU7tiq/Q07KjXaV5JNEW3bKmb3Vu10nv3eGcGpumPUEHWJsEryU+MmDVRZWKjyU5cH9glUgHufsjJ3KK/UUHi7a/XbrrGyWhroynv/oN+2cciQoYDGTRRRckRFp631e+K92LvroKKSkxVmlQy/xmqVHKajb51VCf1H6MGBzeVvSJaQOMUFF6vw7MUAAAAAAAAAAACAXx1GAF8kH7td1pIiFZtSyJlCYLNCZWUe+dv9dXy34ecvP2d5VdDp43PibTAMSeYpCahZqbKyCu3//j29tOJYFdMld2CwSmtYwywvl9PXX37Hm7D5y99HkjwqKyuXT4BdPjqxz25zqsxpSjJqXKNy57d686UFx3Z65LJEKbHMlPzPko6787VtyTwtyy6Qy2KRUXZY7rCk0w4zAlrp+tsrtOSHBfpg/iEZse10VXqaWkd6lLtxgeav/llFpkUWT4ny3I11an58QoXKnab8/P2OXZUhf39/GUWSZKpsT4bmfbde+0oli8WlogJTV5y1FgAAAAAAAAAAAPDrQwB8kawNE9SoaKk27umjRnE+J3ZU5GjZ/N1q3K+j7HaLykvLZOpoCOwpL1O5v0N2QyqpyYsYPrIH+KlR32G6u0uIqseplcqvSQk/P/lWlMp5PB2tLFFphSRZZA/wV+WeMlVKskqSq0ylLn/FnhLcnruGXb7Numvkba116srBZ1Oy4RvN3h6r391zqxr5GXKu/1Avrjtj97I36qhrbu2oa9zF2rX4I308d4Pi+5fpy3l5aj30XnWN9JGZv0z/emvPOV7RR36+UoXTeey9MFVaUno0MPbs1fezflBFn2G6r02IrJ69mv/GJ6qo4bUAAAAAAAAAAAAAvwZMAX2RDEdr9e5s1Y+ffaal2w+r3OVSWV62lnzyqZYW2OXw81VcUhMd3rhBByolmcXatn67/BKbKeKcd98ii6VSTqdHkk1xLeKVv2Gd9ldIUqVy18zRF2tyVdMJii0RjRTr2aHNu8plyqW89ZnKOXZyYEKSGuzdoMzDbklu5Wdu0J7I5koIMmpcI6BpkmL2rtO6Qy5Jpsr3LNPsbzbpyFmH45qqLHdKQeEK8zVklu/Rj5n7ZFZWqPKUI10/L9B7H69UbqUka6AiIh2ymh6ZzjI5bSEKD/aRPCXasXaz8tyVqnSd7TV9FBsXpYObtyjfLZmlO7Rh65GjAbBZrnKnn0LDA2WVWwWb12pbcaUqK88+nhgAAAAAAAAAAAD4tWEE8EXzVZOr7tQdju+06Ot/alF+uYzABmra9hrddWUrhRqS2g7UdQdn67PX18ojya9xNw3q01g2nTWplCxhatoiWMs/e0Uf9LtLt3caqOsPztaM119ShWnKFtFKaTdGyCJ3DdtMUt8BW/XJjFc02dehmNatlOTYKrfHlCWyi25IO6QvPnhVS03JEtRMaTd2UdSpAfU5ahgRnXT9NYc1+8NX9YPLlPxi1HHADQo+69rIhkJadVeb9XP0xivLFByeoB69+6n5Zwv00XcNNbxfvI4tLyxbo/bqFDRL019ZIpdhkTUoQb2va6Pg6CL1aPKRZr/6qgJDIpXcp6+ubPy55n+8XJFXn/GmKiK1v3rsnKF3Jy9TQHhTdWzRWEaRR6a1qTr1DNMn01/RFkeoYtr0U1rnHM2cM0P6wy01u8cAAAAAAAAAAABAHTNM89QFZ3/dTNOUx+NRRUWFCgoKFBsbe1H1ysrKaqkzAAAAAAAAAAAAAHXNbrdf1Pn79u1TaGiofH19ZbFYZBhnHfH4q7Bw4cKq5/369WMKaAAAAAAAAAAAAADwFgTAAAAAAAAAAAAAAOAlCIABAAAAAAAAAAAAwEsQAAMAAAAAAAAAAACAlyAABgAAAAAAAAAAAAAvQQAMAAAAAAAAAAAAAF6CABgAAAAAAAAAAAAAvAQBMAAAAAAAAAAAAAB4CQJgAAAAAAAAAAAAAPASBMC1ZM6cObryyiuVkpKiwsLCum4HAAAAAAAAAAAAQD1EAFxLJkyYoO7du2vJkiVyOBx13Q4AAAAAAAAAAACAeshW1w14g7KyMuXn5+vaa69VREREXbcDAAAAAAAAAAAAoJ5iBHAtME1TkuTr61vHnQAAAAAAAAAAAACozwiAAQAAAAAAAAAAAMBLEADXgvLyckmS1Wqt404AAAAAAAAAAAAA1GcEwBfJNE198sknCgwMVHJycl23AwAAAAAAAAAAAKAes9V1A5e7+++/XytXrtTLL7+skJCQum4HAAAAAAAAAAAAQD3GCOCLNHbsWA0YMEDjxo1TaWlpXbcDAAAAAAAAAAAAoB4jAL5IcXFxGjVqlA4ePKisrKy6bgcAAAAAAAAAAABAPUYAXAscDockqaKioo47AQAAAAAAAAAAAFCfEQADAAAAAAAAAAAAgJcgAK4FhmFIkiorK+u4EwAAAAAAAAAAAAD1GQFwLbDb7QoNDdXXX3+tgoKCum4HAAAAAAAAAAAAQD1FAFxLxowZo++//149evRQYWFhXbcDAAAAAAAAAAAAoB6y1XUD3iI9PV3p6el13QYAAAAAAAAAAACAeowRwAAAAAAAAAAAAADgJQiAAQAAAAAAAAAAAMBLEAADAAAAAAAAAAAAgJcgAAYAAAAAAAAAAAAAL0EADAAAAAAAAAAAAABeggAYAAAAAAAAAAAAALwEATAAAAAAAAAAAAAAeAkCYAAAAAAAAAAAAADwEgTAv2KLFi1SSkqKcnNzNW3aNLVr1+6cx99www16+umnf6Huzm7SpElKT0+XJD388MMaPnx4jc89cOCAUlJSqh4FBQWXqk0AAAAAAAAAAADA6xAA/4oFBARU/f/4o7ZNmzZNf/3rX2u15sm9BgYGym63n3eN119/XcuXL1dISEit9gYAAAAAAAAAAAB4M1tdN4CzOx6i2u32SxYAb9y4sdZrntyr3W6Xx+O5oBrBwcG13RoAAAAAAAAAAADg1RgB/CsWFRWlwYMHy2KxKD4+XjfeeGPVvoyMDA0aNEjt2rVTenq65s2bd9r5+fn5euyxx9S7d2+1b99eAwcO1JQpU6r233333ZoxY4ZmzpyplJQUZWVlSZI2bdqkoUOHKjU1VZ06ddLIkSO1e/fuqvNcLpcmTpyoq666Su3bt1e/fv303HPPqbKyUpKUkpKitLQ0SVLnzp3Vo0cPSZLT6VRKSorefPPN2r9ZAAAAAAAAAAAAABgB/GvWoEEDPfHEE5Kk5ORkJScnS5KKioo0YsQIJScn66OPPlJlZaUmT56svLy8auc//vjjysnJ0eTJkxUREaG1a9dq7Nixio2NVVpaml599VUNHTpUCQkJGjNmjBwOh/bu3au77rpLqampmjp1qjwej55//nkNGzZMs2fPlp+fn9555x3Nnj1bzz//vJo0aaIdO3Zo3Lhx8vPz06hRo9S1a1d17dpVktS/f/+qfqxWq/r06aP4+Phf6A4CAAAAAAAAAAAA9QsB8GVo8eLFOnLkiEaPHq2kpCRJ0pNPPqkBAwZUO27ChAkyDEPh4eGSpISEBE2dOlVLly5VWlqaHA6HbDabfH19FRoaKkn68MMPJUmTJk2qmoJ54sSJSktL0/z585Wenq5NmzYpKSlJPXv2lCTFxcXp3XfflcVy7gHlNptNb7zxRu3dCAAAAAAAAAAAAADVMAX0ZSg7O1s2m60q/JWOhrBhYWHVjsvPz9fjjz+uLl26KCUlRSkpKdq0aZOOHDly1tqZmZlq1apVtfV3Y2Ji1LhxY2VkZEiSrrrqKq1cuVKPPPKIvv32WxUWFioxMVEJCQm1e6EAAAAAAAAAAAAAzgsjgC9DJSUlCgoKOm27w+Goeu50OjVy5EhFR0dr+vTpio+Pl9Vq1ZAhQ85Zu6ioSJs3b1b79u2rba+srNShQ4ckSTfddJPCw8P14Ycf6rHHHpPL5dI111yjMWPGnBZCAwAAAAAAAAAAAPjlEABfhux2u4qLi0/bXlBQUPV869atysnJ0cSJE5WYmFi1PS8vTzExMWet7XA41LFjR40fP/60fYGBgVXPe/furd69e6u8vFxLlizRhAkTNG7cOP3jH/+4wKsCAAAAAAAAAAAAcLGYAvoy1LRpU7lcLm3btq1q27Zt26pN7VxSUiKpemibkZGhnJwcmaZZrd7Jf7dp00Y5OTlq0qSJEhMTqx4Wi0VRUVGSpPnz52vPnj2SJH9/f/3mN7/RbbfdpqysrNq/WAAAAAAAAAAAAAA1RgB8Gerbt68CAgL09NNPa8OGDVq1apXGjRuniIiIqmNatmwpu92uKVOm6ODBg1q8eLEmTZqkPn36aMeOHVXTOYeEhGjTpk3KyspSQUGBBg8erKKiIj3++OPasmWLdu3apTfffFPXX399VcA7ZcoUPfLII1q9erV2796tVatW6euvv1Zqauo5+3a5XHrooYc0d+7cS3dzAAAAAAAAAAAAgHqMAPgyFBoaqldffVX5+fkaMmSInnjiCQ0dOlTx8fFyuVxVxzzzzDNatmyZBgwYoHfffVdPP/20hgwZor179+r++++XJA0ZMkS5ubkaNmyYNm7cqIYNG+r999/XoUOHdMcdd+jmm2/W4sWL9frrr6tVq1aSpBdffFEJCQl65JFHdO211+rPf/6zOnfurLFjx56zb7fbrQULFmjHjh2X9gYBAAAAAAAAAAAA9ZRhnjof8K+caZryeDyqqKhQQUGBYmNjL6peWVlZLXWG2nDgwAH169dP7733nrp06VLX7QAAAAAAAAAAAOAyY7fbL+r8ffv2KTQ0VL6+vrJYLDIMo5Y6uzQWLlxY9bxfv36MAMavU3l5uUpLS+u6DQAAAAAAAAAAAOCyQgCMX6UHHnhAnTp1UkFBQV23AgAAAAAAAAAAAFw2bHXdAHCy6Ohobdq0qa7bAAAAAAAAAAAAAC5LjAAGAAAAAAAAAAAAAC9BAAwAAAAAAAAAAAAAXoIAGAAAAAAAAAAAAAC8BAEwAAAAAAAAAAAAAHgJAmAAAAAAAAAAAAAA8BIEwAAAAAAAAAAAAADgJQiAAQAAAAAAAAAAAMBLEAADAAAAAAAAAAAAgJcgAK7n5syZoyuvvFIpKSkqLCys63YAAAAAAAAAAAAAXAQC4HpuwoQJ6t69u5YsWSKHw1HX7QAAAAAAAAAAAAC4CLa6bgB1p6ysTPn5+br22msVERFR1+0AAAAAAAAAAAAAuEiMAK7HTNOUJPn6+tZxJwAAAAAAAAAAAABqAwEwAAAAAAAAAAAAAHgJAuB6rLy8XJJktVrruBMAAAAAAAAAAAAAtYEAuJ4yTVOffPKJAgMDlZycXNftAAAAAAAAAAAAAKgFtrpuAHXj/vvv18qVK/Xyyy8rJCSkrtsBAAAAAAAAAAAAUAsYAVxPjR07VgMGDNC4ceNUWlpa1+0AAAAAAAAAAAAAqAUEwPVUXFycRo0apYMHDyorK6uu2wEAAAAAAAAAAABQCwiA6zGHwyFJqqioqONOAAAAAAAAAAAAANQGAmAAAAAAAAAAAAAA8BIEwPWYYRiSpMrKyjruBAAAAAAAAAAAAEBtIACux+x2u0JDQ/X111+roKCgrtsBAAAAAAAAAAAAcJEIgOu5MWPG6Pvvv1ePHj1UWFhY1+0AAAAAAAAAAAAAuAi2um4AdSs9PV3p6el13QYAAAAAAAAAAACAWsAIYAAAAAAAAAAAAADwEgTAAAAAAAAAAAAAAOAlCIABAAAAAAAAAAAAwEsQAAMAAAAAAAAAAACAlyAABgAAAAAAAAAAAAAvQQAMAAAAAAAAAAAAAF6CABgAAAAAAAAAAAAAvAQBMAAAAAAAAAAAAAB4CQJg1LpFixYpJSVFubm5mjZtmtq1a3fO42+44QY9/fTTl7yvW265RePHj5ck9ejRQ2+//XatnJudna0RI0aoe/fu6tGjhx544AFt27at2vk5OTkaMWKEUlNT1blzZ/3v//6vDh06VO2YmtQ52fTp05WSkqJPP/20RtewdOlS3XLLLerQoYP69OmjyZMny+12n3bct99+q86dO+uhhx6qUd3jjhw5ohEjRiglJUVZWVmn7U9NTVVKSsppjzlz5kiSJk2apPT0dEnSww8/rOHDh5/X6wMAAAAAAAAAAECy1XUD8D4BAQFV/z/+qG3Tpk1TZmamnnnmmRqfExgYKLvdftrzizk3NzdXd999txITEzVx4kS53W69+uqrGj58uL788ksFBQWpvLxc9957r6Kjo/Xaa6/J5XLpxRdf1IgRIzR9+nQZhlGjOifLy8vTSy+9JKvVWqP+N2/erAcffFA33XSTRo8erZycHE2YMEFut1uPPvqoJKmyslITJ07UrFmzFBwcXON7I0nr16/XqFGjTuvzONM0VV5erhEjRqhLly7V9jVv3lySqn1WAgMD5fF4zqsHAAAAAAAAAAAAEADjEjge4tnt9ksWAG/cuPG8z7Hb7QoMDDzt+cWcO2vWLJWWlur111+Xw+GQJDVu3Fg33HCDVq1apX79+unLL79Ubm6uPv74Y4WFhUmSGjZsqOuuu04//PCDevXqVaM6J3vmmWfUq1cvLV68uEb9//Of/1RSUpKefPJJSVL79u1VUlKi559/Xvfff78cDoe2bt2qFStW6NNPPz3vEdlvvfWWbrvtNnXp0kV33HHHaftLS0tlmqZatWp1WgB83MmfFbvdTgAMAAAAAAAAAABwAZgCGrUuKipKgwcPlsViUXx8vG688caqfRkZGRo0aL4OVE4AACAASURBVJDatWun9PR0zZs377Tz8/Pz9dhjj6l3795q3769Bg4cqClTplTtv/vuuzVjxgzNnDmz2nTDmzZt0tChQ5WamqpOnTpp5MiR2r17d9V5ffr0qZqOOj09XUlJSZIkp9OplJQUvfnmm2e9prOde+utt2rGjBlVoa0kxcbGVl2HJC1fvlzt2rWrCn8lKTExUXFxcVq6dGmN6xy3ePFiff/993rsscfO2u+pli9fflqI3K9fPzmdTv3444+SpLi4OE2fPl1NmjSpcd3jnnjiCf3+97+XYRhn3F9cXCxJ5/wxQEpKitLS0iRJnTt3Vo8ePc67DwAAAAAAAAAAgPqOEcCodQ0aNNATTzwhSUpOTlZycrIkqaioSCNGjFBycrI++ugjVVZWavLkycrLy6t2/uOPP66cnBxNnjxZERERWrt2rcaOHavY2FilpaXp1Vdf1dChQ5WQkKAxY8bI4XBo7969uuuuu5SamqqpU6fK4/Ho+eef17BhwzR79mz5+flp8ODBVa/xwAMPVD23Wq3q06eP4uPjz3pNZzs3ODj4tOmSFy9eLMMw1KFDB0nSzp071bJly9NqxsXFaefOnTWuI0llZWV66qmnNGrUKEVFRZ2135OVlpYqLy9PcXFx1bZHR0fLx8enWg8XKjo6+pz7S0pKJJ07AO7atau6du0qSerfv/8F9wIAAAAAAAAAAFCfEQDjF7N48WIdOXJEo0ePrhpB++STT2rAgAHVjpswYYIMw1B4eLgkKSEhQVOnTtXSpUuVlpYmh8Mhm80mX19fhYaGSpI+/PBDSdKkSZOqgsyJEycqLS1N8+fPV3p6+ln7stlseuONN2rlGvfu3aunnnpKN998s5o2bSrp6OjXM62NGxgYqMOHD9e4jiS99tprioiI0G233VbjnoqKiqpe70w9HN9/KZWWlkqSZs6cqT/96U/Kzc1V48aNdc8992jQoEGX/PUBAAAAAAAAAADqCwJg/GKys7Nls9mqwl/p6CjYk6dGlo5OeTxp0iRlZGRUTR0s6ZwjdDMzM9WqVatqo1hjYmLUuHFjZWRknDMAri07d+7Uvffeq+TkZI0ZM6bW62zZskUffPCBpk+fLovlzLO3O51OOZ3Oqr/tdvsF93EmhYWFVc8tFssZg+2z9RUUFKT9+/frr3/9q+x2u+bOnavRo0fL5XLplltuqdU+AQAAAAAAAAAA6isCYPxiSkpKzhgYnrzurdPp1MiRIxUdHa3p06crPj5eVqtVQ4YMOWftoqIibd68We3bt6+2vbKyUocOHaqdCziHTZs2afjw4UpNTdWkSZPk5+dXtS84OPiMo2yLiopOm3b5bHU8Ho/GjRunO++8s2pK7TN57bXX9M4771T9PWHChKrplE8O0yXJNE0VFxfXeOpnp9Opbt26Vf3dsGFD/ec//6nRuampqVq5cmW1bZ07d9bu3bs1ZcoUAmAAAAAAAAAAAIBaQgCMX4zdbj8thJSkgoKCqudbt25VTk6OJk6cqMTExKrteXl5iomJOWtth8Ohjh07avz48aftO9PUx7Vpx44dGjZsmNLS0vTkk0+eNjq3adOmVevsnmznzp267rrralRn//79Wr9+vTZu3Kh//etfVdvdbrfGjx+vF198UUuXLtXgwYPVt2/fqv0JCQkKCAhQdHT0aT3s3r1bLper2n0+F19fX02dOrXq75ND7gvVokULrVq16qLrAAAAAAAAAAAA4CgCYPximjZtKpfLpW3btlVNA71t2zYdOXKk6piSkhJJ1UPbjIwM5eTkqFWrVtXqmaZZ9bxNmzb64osv1KRJE9lsJz7WO3fuVFRU1CW5HklyuVx66KGH1K1bN/3tb3+TYRinHdOrVy+NHj1aubm5Vb1kZmZq//796t27d43qNGjQQLNmzTqt9u2336577723apRvw4YN1bBhwzP2sGDBAv3hD3+oqj1v3jzZ7XZ16tSpRtdqGIY6duxYo2NPNX/+fM2ZM0fPPfecfHx8qrZv2PD/2bv3IKvLwo/jnz27y8IKgmjQpqQCKuEYKqhhhjlZIpViajqZ2QUvUJEDmJiW9huggqKLYiqUIIVRGuaUjYFaNllNlJSIJpZ5QZoURkWu7uX3B8PGCqkotezj6zWzw57z/Z7nPOe75783z/O9L/vss8+rGhMAAAAAAIBtCcD8z7zzne9MfX19Jk2alAkTJmTDhg35+te/nj333LP1nAEDBqRLly6ZO3duPvnJT+bBBx/MNddck2OPPTaPPPJIVq1alT333DPdu3fPsmXL8sADD6ShoSFnnnlm5s2bl0suuSSjRo1K586d8/Of/zwzZszID37wg23i8dYaGxtz4YUX5v3vf39rSH2lfvCDH+Sxxx7LuHHjtlnJ2qtXr+y3334ZPnx4rr322nzmM5/J2LFjs3HjxkydOjVve9vbWuPrKxln63snb1GpVNKrV6/069fvJef58Y9/PKeeemouu+yynH766fn73/+eGTNm5Nxzz229T/Djjz+elStXJtm8Kru2trZ12+a+fftmr7322u7Yzc3NWbx4cZLkb3/7W5Lk/vvvz5o1a1JXV5dBgwblzW9+c+688858+tOfzjnnnJPq6ur87Gc/y+9///tMmzbtJeeepHVl9/ZWeAMAAAAAAPBvVS1bL6PsAFpaWtLc3JxNmzblmWeeSUNDw2sab/369TtpZrwSv/vd7zJlypT84x//yN57751x48Zlzpw56d+/f2vcu/322/O1r30tTz/9dA455JBcfvnlefLJJzN+/Pj06dMnN910U+6+++5MnDgxSTJt2rS8/e1vz7Jly/LVr341f/7zn5MkBx10UEaPHp13vOMdLzmnjRs35rDDDsvYsWNzwQUX7NDn+dSnPpU777xzu8fOOOOMXH755Uk2b+E8adKk/Pa3v011dXWOP/74TJw4sfX+u690nBc78sgj89nPfjannXbay8518eLFmTp1ah566KHsscceOeOMM3Leeee1bjU9ffr0NvcP3trkyZNzyimnbPfYluu3PVvfJ/iPf/xjrrrqqixbtixJ0r9//5x//vmtq6BfyllnnZVKpZK5c+e+7LkAAAAAAMDr25bFb6/WypUr06NHj3Tq1CmVSmW7O8DuSu66667W34877jgBWACGXd/y5ctz5ZVX5lvf+lZ7TwUAAAAAANjFvd4DcKUd5wLwitxyyy1517ve1d7TAAAAAAAA2OW5BzCwy7vooovaewoAAAAAAAAdghXAAAAAAAAAAIUQgAEAAAAAAAAKIQADAAAAAAAAFEIABgAAAAAAACiEAAwAAAAAAABQCAEYAAAAAAAAoBACMAAAAAAAAEAhBGAAAAAAAACAQgjAAAAAAAAAAIUQgNnpfvWrX2XgwIF56qmnMm/evAwaNKi9p9RhnHTSSZk0aVLr40996lMZOHDgf/x57LHHsnz58gwcODB/+tOfkiTf//73c8ghh+zQ+372s5/NWWedtVM/y2v9Hpxwwgmtn3PevHltPvdzzz23U+cKAAAAAABQipr2ngDlqa+vb/13yw+vXp8+fXLFFVds91ivXr3y+OOPt3nuqKOOyuc///mdPo+HH344F1xwQRYtWvSKzt8Z34NRo0Zl1KhR6dy5c973vvflN7/5TcaPH7/D4wAAAAAAALxeCMDsdFtCX5cuXV5XAbilpSXNzc2prq7eqePW19dn6NChr/j8/v37p3///jt1Dkly//3379D5O+N7UFdXl9133z1J0qlTp3Tp0mWHxwAAAAAAAHg9sQU0O90b3vCGnHnmmalUKtl3331z8sknJ9kcEAcOHLhNSDzhhBMyderU1sfHHHNMvve972X69Ok55phjMmTIkIwePTqrVq1qPaexsTHTpk3Lsccem8GDB+ess87KkiVLWo9v2rQp06ZNy3HHHZe3vvWtede73pVvfOMbaWpqSpJ84xvfyBFHHJEXXnihzVy+853v5NBDD83zzz+fJLntttty8sknZ9CgQTnmmGMyefLkbNiwofX8sWPHZvz48ZkxY0aGDBmSu+66K0myevXqXHzxxTn66KNz6KGH5oMf/GB+//vft3mve++9N6ecckoGDRqUESNGZOHCha/6mm/txVtANzY2ZvLkyRk6dGiGDBmSSy+9NHfccUfr9sxb1NTUZNGiRRkxYkQOP/zwnHbaabnvvvuSJDNmzMgll1ySJ598MgMHDsycOXOSJH/84x9z9tln58gjj2z9OyxevDjJf/4eJMn06dN3eJtqAAAAAAAAXp4AzE7Xq1evfOELX0iSHHTQQRk7duwOvb62tjazZ89Or169snDhwixYsCDLli3L1Vdf3XrOlClTsmDBgkycODFz587Nvvvum1GjRmXFihVJkv/7v//Lj370o1x00UX56U9/mgsvvDBz587NV7/61STJiBEjsnbt2vz2t79t89633357hg0blq5du2bhwoWZMGFCjj322Nxyyy2ZMmVKFi1a1GZ75dra2ixfvjwPPvhgrrvuugwZMiRNTU0599xzs2TJkkyfPj0333xzBg0alPPOOy/Lly9PkqxZsyZjxoxJ9+7dM3/+/HzlK1/JjTfemKeffnrHL/jLuPbaa/PDH/4w48ePz49//OPss88+mTZtWuv8t/jnP/+Z+fPnZ/Lkybn++uuzadOmXHrppUmSj3/84/nwhz+cN77xjbnnnnty5plnZt26dbngggvSv3//3HjjjZk/f34GDBiQ888/P88999xLfg/69u2bYcOG7fTPCgAAAAAA8HpnC2h2SX369MmHP/zh1t+HDRvWuhp1zZo1ufnmmzNx4sSceOKJSZIvfvGLWbt2bR599NHstttu+clPfpJPf/rTGTFiRJLkzW9+cx544IHMnz8/48aNy4EHHph+/frljjvuaA2RK1euzNKlS3PuuecmSWbNmpXDDz8848aNS5Lsv//+GT9+fC6++OJMmDAhvXv3TnV1dR599NF873vfa92q+O67784DDzyQ66+/PkcddVSS5JJLLsk999yT73//+7niiity991359lnn82ll16aAw44oPUzDB8+fJtr0dzcnHXr1m33Or2SbZVvvfXWvPvd785pp52WJBk9enSWLFmSxx57rM15Tz31VObPn58ePXok2Rx9P/e5z2X9+vXp0qVLOnfunEql0nr8r3/9a9auXZv3ve996devX5Lkc5/7XIYPH94mLG/PyJEjM3LkyJedOwAAAAAAADvGCmB2SQMGDGjzuFu3bnnuueeSJA899FBeeOGFNlsI19bW5pvf/GaOPvro/PWvf01TU1MOP/zwNmO89a1vzfr16/Poo48mSYYPH5477rgjzc3NSZJf/OIX2W233TJs2LA0NTVl2bJl29x794gjjkhLS0trjE6SfffdtzX+JsnSpUtTXV2dIUOGtD5XqVQyePDg3HvvvUmShx9+ODU1Na3xN9kcuvfYY49trsXy5cszZMiQbX7e8Y53vOx1fOGFF/LEE0/k4IMPbvP89l67//77t8bdJOnevXuStF737Z3fr1+/TJgwIbNmzcqyZctSqVRyxBFHuFcvAAAAAABAO7ECmF1S586dt3mupaUlyeYVwElSV1e33dduOb51lN368dq1a5MkJ554YmbMmJF77703gwcPzi9+8Yu85z3vSV1dXdatW5empqZcc801mTlz5jbvsfVWzd26dWtz7Pnnn09TU1MGDx7c5vmmpqbWqLp27dp07dp1m3FfPFayefXylClTtnm+Unn5/7+xfv36tLS0bDNuz549tzn3xde8qqrqJcfu1KlT5s6dm+9+97u56aabMn369DQ0NGT8+PGtK68BAAAAAAD43xKA+Z/5T0Fx48aNOzTObrvtliR55plntnt8S+x88crVZ599Nklaw2vfvn1z4IEHZuHChenTp0+WLFmSMWPGJNkcQ2tqanL22Wfn1FNP3eY99tprr/84v27duqWuri4333zzNseqq6uTJF26dMnzzz+/zfHtfaYuXbpss5r5ldoSybdE75d6n1ejR48eGTduXMaNG5d//OMf+e53v5uLLrooffv23WYVNwAAAAAAAP99toDmf2ZLmN06fD799NN56qmndmicgw46KDU1NVm8eHHrc83NzfnIRz6SW2+9NQMGDEh1dXWWLFnS5nX33ntvunbtmv3226/1uREjRuTXv/517rzzzvTs2TNve9vbkmxeXXvwwQfnySefTN++fVt/+vTpk9ra2m1WF2/tkEMOycaNG9Pc3NzmtZ07d07v3r2TbN4+ubGxMcuXL2993fLly1sj9c5SV1eX3r1756GHHmrz/K9//etXNd6WVdhJ8sQTT+SOO+5ofbzffvvliiuuSHV1dR588MFXN2EAAAAAAABeEwGY/5mGhob07NkzP/nJT7Jx48asXr06kydP3u59b1/K7rvvnpEjR2bWrFm55ZZbsmzZsnzxi1/M/fffn8MOOyzdu3fPqaeemlmzZmXRokVZsWJFFixYkJtuuinnnHNO6yrcZPM20I888kh++MMfZvjw4W2OfeITn8jChQsza9asPProo3nggQdy8cUX5+yzz866dev+4/yGDh2at7zlLbn44ouzePHirFixIrfddls+8IEPZP78+UmSd77znamvr8+kSZNy33335Q9/+EMuv/zy7Lnnnjt4VV/eCSeckJ///Oe57bbb8uSTT+a6667LihUrdnic3XffPU8//XQWL16cJ554IitXrsyFF16Y2bNn55FHHskjjzySa6+9Nsnm+y2/lFtvvTVjx459VZ9na0uXLs2ZZ56ZpUuXvuaxAAAAAAAASmALaP5nampq8qUvfSlTp07N0KFD86Y3vSkTJkzIv/71rzQ1Ne3QWJdddlnq6+vzta99LWvXrs2AAQMyc+bM9OnTJ0ly6aWXpmvXrpk0aVJWrVqVhoaGjB49OqNGjWozTp8+fTJw4MAsW7Ysl19+eZtjxx9/fKZOnZrrrrsuV155Zerr6zN48ODMmTMn9fX1/3Fu1dXVmTlzZqZOnZqxY8dm3bp12WeffTJ69Oicc845STZvnXzVVVdlypQpOeuss7L33ntn3LhxmTNnThobG3foWrycsWPHZvXq1fn85z+fTp065aSTTsqoUaMyceLE1NbWvuJx3vve9+aWW27J+eefn0984hMZM2ZMvvSlL+X666/PlVdemUqlkgMOOCBXXXVV+vbt+5JjPfzww7nrrrte60fLmjVr8pe//GWbLa4BAAAAAIDXl8bGxvz4xz/Ou9/97nTp0qW9p9Ouqlq23tO1A2hpaUlzc3M2bdqUZ555Jg0NDa9pvPXr1++kmcGuqbGxMWvWrGmz0vqaa67JDTfckHvuuacdZ/bSTjjhhJx00kn55Cc/2frcL3/5y4wZMya/+93vWrfh/sxnPpMxY8bkoIMOaq+pAgAAAAAA7aixsTGzZ89O9+7dc/rpp7/mALxy5cr06NEjnTp1SqVSSVVV1U6a6X/H1ovujjvuOFtAQ+lmzpyZ448/Prfffnsef/zxLFq0KDfccEM+8IEPtPfUXtamTZuybt26NDY2Zt26ddm0aVOb46tXr85jjz2WAw44oJ1mCAAAAAAAtKfm5ubMnj07e+21V04//fT2ns4uwRbQULjzzjsvGzZsyNSpU7Nq1ar07t07Z5xxRi644IL2ntrLmjlzZmbOnJnLLrsskyZN2uZ4z549s2DBgnaYGQAAAAAA0N42x9856d37jTn22GH58pe/nDFjxtgC2hbQtoAGAAAAAACAjmRL/N17771z9NFDc/XV386IESfmkEMOed1vAW0FMAAAAAAAANBhbIm/ffvunyFDhuTqq7+dk056fxoaGtLB1r7+V7gHMAAAAAAAANAhbIm//fr1zZAhQ/Ltb1+TkSNHpnfvN2b27DnZsGFDe0+x3VkBDAAAAAAAAOzytsTfAw88MIceOijXXHNtTj755Oy5556ZPXt2zjnnI+ncuXN7T7PdWQEMAAAAAAAA7NKam5szZ84NOfjgg3P44Yfluutm5pRTTskee/TInDlz8rGPfSyrVq1OY2Nje0+13QnAAAAAAAAAwC5twYIFGThwYI466sjMnj0np5wyMg0Nb8y8eTfmox/9aJ577tn88pd3tfc0dwlVLR3sTsgtLS1pbm7Opk2b8swzz6ShoeE1jTdv3rydNDMAAAAAAADgv6GxsTE1NTXb/N7U1JTq6uqsX78+dXV1qVQq+dCHPvSa3mvlypXp0aNHOnXqlEqlkqqqqtc8//+mu+76d/g+7rjj3AP4tX4BAAAAAAAAAHYVtoAGAAAAAAAAKIQADAAAAAAAAFAIARgAAAAAAACgEAIwAAAAAAAAQCEEYAAAAAAAAIBCCMAAAAAAAAAAhRCAAQAAAAAAAAohAAMAAAAAAAAUQgAGAAAAAAAAKIQADAAAAAAAAFAIARgAAAAAAACgEAIwAAAAAAAAQCEEYAAAAAAAAIBCCMAAAAAAAAAAhRCAAQAAAAAAAAohAAMAAAAAAAAUQgAGAAAAAAAAKIQADAAAAAAAAFAIARgAAAAAAACgEAIwAAAAAAAAQCEEYAAAAAAAAIBCCMAAAAAAAAAAhRCAAQAAAAAAAAohAAMAAAAAAAAUQgAGAAAAAAAAKIQADAAAAAAAAFAIARgAAAAAAACgEAIwAAAAAAAAQCEEYAAAAAAAAIBCCMAAAAAAAAAAhRCAAQAAAAAAAAohAAMAAAAAAAAUQgAGAAAAAAAAKESHDcBVVVXtPQUAAAAAAACgQB25RXbYAJwklUolGzZsaO9pAAAAAAAAAAXYsGFDKpUOnVA7ZgCuqqpKpVJJbW1tVqxY0d7TAQAAAAAAAAqwYsWK1NbWplKpdNhVwB0uAG+50FVVVamtrU1NTU2WLl2aNWvWtPPMAAAAAAAAgI5ozZo1Wbp0aWpqalJbW9umSXY0Ne09gVejqqoq1dXVqa2tTbdu3dLY2JgHH3wwzz//fF544YW0tLQkSeu/AAAAAAAAAFu8eNFp165d07Nnz3Tr1i21tbWprq7ukPE36aABOPn3H6O+vj7V1dXZbbfdsmHDhjQ2Nrb31AAAAAAAAIAOoqamJnV1damvr09dXV2bFcAdUYcMwFVVVWlpaUmlUkmnTp1SqVRSV1eXpqamJFb+AgAAAAAAAC9vS+itrq5OpVJJTU1Nh97+OemgATj5dwSuqqpKTc3mjyH8AgAAAAAAADvqxdG3o8bfpAMH4GTbC9+R/xAAAAAAAABA+yqhN3boALxFCX8IAAAAAAAAgNeq0t4TAAAAAAAAAGDnEIABAAAAAAAACiEAAwAAAAAAABRCAAYAAAAAAAAohAAMAAAAAAAAUAgBGAAAAAAAAKAQAjAAAAAAAABAIQRgAAAAAAAAgEIIwAAAAAAAAACFEIABAAAAAAAACiEAAwAAAAAAABRCAAYAAAAAAAAohAAMAAAAAAAAUAgBGAAAAAAAAKAQAjAAAAAAAABAIQRgAAAAAAAAgEIIwAAAAAAAAACFEIABAAAAAAAACiEAAwAAAAAAABRCAAYAAAAAAAAohAAMAAAAAAAAUAgBGAAAAAAAAKAQAjAAAAAAAABAIQRgAAAAAAAAgEIIwAAAAAAAAACFEIABAAAAAAAACiEAAwAAAAAAABRCAAYAAAAAAAAohAAMAAAAAAAAUAgBGAAAAAAAAKAQAjAAAAAAAABAIQRgAAAAAAAAgEIIwAAAAAAAAACFEIABAAAAAAAACiEAAwAAAAAAABRCAAYAAAAAAAAohAAMAAAAAAAAUAgBGAAAAAAAAKAQAjAAAAAAAABAIQRgAAAAAAAAgEIIwAAAAAAAAACFEIABAAAAAAAACiEAAwAAAAAAABRCAAYAAAAAAAAohAAMAAAAAAAAUAgBGAAAAAAAAKAQAjAAAAAAAABAIQRgAAAAAAAAgEIIwAAAAAAAAACFEIABAAAAAAAACiEAAwAAAAAAABRCAAYAAAAAAAAohAAMAAAAAAAAUAgBGAAAAAAAAKAQAjAAAAAAAABAIQRgAAAAAAAAgEIIwAAAAAAAAACFEIABAAAAAAAACiEAAwAAAAAAABRCAAYAAAAAAAAohAAMAAAAAAAAUAgBGAAAAAAAAKAQAjAAAAAAAABAIQRgAAAAAAAAgEIIwAAAAAAAAACFEIABAAAAAAAACiEAAwAAAAAAABRCAAYAAAAAAAAohAAMAAAAAAAAUAgBGAAAAAAAAKAQAjAAAAAAAABAIQRgAAAAAAAAgEIIwAAAAAAAAACFEIABAAAAAAAACiEAAwAAAAAAABRCAAYAAAAAAAAohAAMAAAAAAAAUAgBGAAAAAAAAKAQAjAAAAAAAABAIQRgAAAAAAAAgEIIwAAAAAAAAACFEIABAAAAAAAACiEAAwAAAAAAABRCAAYAAAAAAAAohAAMAAAAAAAAUAgBGAAAAAAAAKAQAjAAAAAAAABAIQRgAAAAAAAAgEIIwAAAAAAAAACFEIABAAAAAAAACiEAAwAAAAAAABRCAAYAAAAAAAAohAAMAAAAAAAAUAgBGAAAAAAAAKAQAjAAAAAAAABAIQRgAAAAAAAAgEIIwAAAAAAAAACFEIABAAAAAAAACiEAAwAAAAAAABRCAAYAAAAAAAAohAAMAAAAAAAAUAgBGAAAAAAAAKAQAjAAAAAAAABAIQRgAAAAAAAAgEIIwAAAAAAAAACFEIABAAAAAAAACiEAAwAAAAAAABRCAAYAAAAAAAAohAAMAAAAAAAAUAgBGAAAAAAAAKAQAjAAAAAAAABAIQRgAAAAAAAAgEIIwAAAAAAAAACFEIABAAAAAAAACiEAAwAAAAAAABRCAAYAAAAAAAAohAAMAAAAAAAAUAgBGAAAAAAAAKAQAjAAAAAAAABAIQRgAAAAAAAAgEIIwAAAAAAAAACFEIABAAAAAAAACiEAAwAAAAAAABRCAAYAAAAAAAAohAAMADLMbQAAIABJREFUAAAAAAAAUAgBGAAAAAAAAKAQAjAAAAAAAABAIQRgAAAAAAAAgEIIwAAAAAAAAACFEIABAAAAAAAACiEAAwAAAAAAABRCAAYAAAAAAAAohAAMAAAAAAAAUAgBGAAAAAAAAKAQAjAAAAAAAABAIQRgAAAAAAAAgEIIwAAAAAAAAACFEIABAAAAAAAACiEAAwAAAAAAABRCAAYAAAAAAAAohAAMAAAAAAAAUAgBGAAAAAAAAKAQAjAAAAAAAABAIQRgAAAAAAAAgEIIwAAAAAAAAACFEIABAAAAAAAACiEAAwAAAAAAABRCAAYAAAAAAAAohAAMAAAAAAAAUAgBGAAAAAAAAKAQAjAAAAAAAABAIQRgAAAAAAAAgEIIwAAAAAAAAACFEIABAAAAAAAACiEAAwAAAAAAABRCAAYAAAAAAAAohAAMAAAAAAAAUAgBGAAAAAAAAKAQAjAAAAAAAABAIQRgAAAAAAAAgEIIwAAAAAAAAACFEIABAAAAAAAACiEAAwAAAAAAABRCAAYAAAAAAAAohAAMAAAAAAAAUAgBGAAAAAAAAKAQAjAAAAAAAABAIQRgAAAAAAAAgEIIwAAAAAAAAACFEIABAAAAAAAACiEAAwAAAAAAABRCAAYAAAAAAAAohAAMAAAAAAAAUAgBGAAAAAAAAKAQAjAAAAAAAABAIQRgAAAAAAAAgEIIwAAAAAAAAACFEIABAAAAAAAACiEAAwAAAAAAABRCAAYAAAAAAAAohAAMAAAAAAAAUAgBGAAAAAAAAKAQAjAAAAAAAABAIQRgAAAAAAAAgEIIwAAAAAAAAACFEIABAAAAAAAACiEAAwAAAAAAABRCAAYAAAAAAAAohAAMAAAAAAAAUAgBGAAAAAAAAKAQAjAAAAAAAABAIQRgAAAAAAAAgEIIwAAAAAAAAACFEIABAAAAAAAACiEAAwAAAAAAABRCAAYAAAAAAAAohAAMAAAAAAAAUAgBGAAAAAAAAKAQAjAAAAAAAABAIQRgAAAAAAAAgEIIwAAAAAAAAACFEIABAAAAAAAACiEAAwAAAAAAABRCAAYAAAAAAAAohAAMAAAAAAAAUAgBGAAAAAAAAKAQAjAAAAAAAABAIQRgAAAAAAAAgEIIwAAAAAAAAACFEIABAAAAAAAACiEAAwAAAAAAABRCAAYAAAAAAAAohAAMAAAAAAAAUAgBGAAAAAAAAKAQAjAAAAAAAABAIQRgAAAAAAAAgEIIwAAAAAAAAACFEIABAAAAAAAACiEAAwAAAAAAABRCAAYAAAAAAAAohAAMAAAAAAAAUAgBGAAAAAAAAKAQAjAAAAAAAABAIQRgAAAAAAAAgEIIwAAAAAAAAACFEIABAAAAAAAACiEAAwAAAAAAABRCAAYAAAAAAAAohAAMAAAAAAAAUAgBGAAAAAAAAKAQAjAAAAAAAABAIQRgAAAAAAAAgEIIwAAAAAAAAACFEIABAAAAAAAACiEAAwAAAAAAABRCAAYAAAAAAAAohAAMAAAAAAAAUAgBGAAAAAAAAKAQAjAAAAAAAABAIQRgAAAAAAAAgEIIwAAAAAAAAACFEIABAAAAAAAACiEAAwAAAAAAABRCAAYAAAAAAAAohAAMAAAAAAAAUAgBGAAAAAAAAKAQAjAAAAAAAABAIQRgAAAAAAAAgEIIwAAAAAAAAACFEIABAAAAAAAACiEAAwAAAAAAABRCAAYAAAAAAAAohAAMAAAAAAAAUAgBGAAAAAAAAKAQAjAAAAAAAABAIQRgAAAAAAAAgEIIwAAAAAAAAACFEIABAAAAAAAACiEAAwAAAAAAABRCAAYAAAAAAAAohAAMAAAAAAAAUAgBGAAAAAAAAKAQAjAAAAAAAABAIQRgAAAAAAAAgEIIwAAAAAAAAACFEIABAAAAAAAACiEAAwAAAAAAABRCAAYAAAAAAAAohAAMAAAAAAAAUAgBGAAAAAAAAKAQAjAAAAAAAABAIQRgAAAAAAAAgEIIwAAAAAAAAACFEIABAAAAAAAACiEAAwAAAAAAABRCAAYAAAAAAAAohAAMAAAAAAAAUAgBGAAAAAAAAKAQAjAAAAAAAABAIQRgAAAAAAAAgEIIwAAAAAAAAACFEIABAAAAAAAACiEAAwAAAAAAABRCAAYAAAAAAAAohAAMAAAAAAAAUAgBGAAAAAAAAKAQAjAAAAAAAABAIQRgAAAAAAAAgEIIwAAAAAAAAACFEIABAAAAAAAACiEAAwAAAAAAABRCAAYAAAAAAAAohAAMAAAAAAAAUAgBGAAAAAAAAKAQAjAAAAAAAABAIQRgAAAAAAAAgEIIwAAAAAAAAACFEIABAAAAAAAACiEAAwAAAAAAABRCAAYAAAAAAAAohAAMAAAAAAAAUAgBGAAAAAAAAKAQAjAAAAAAAABAIQRgAAAAAAAAgEIIwAAAAAAAAACFEIABAAAAAAAACiEAAwAAAAAAABRCAAYAAAAAAAAohAAMAAAAAAAAUAgBGAAAAAAAAKAQAjAAAAAAAABAIQRgAAAAAAAAgEIIwAAAAAAAAACFEIABAAAAAAAACiEAAwAAAAAAABRCAAYAAAAAAAAohAAMAAAAAAAAUAgBGAAAAAAAAKAQAjAAAAAAAABAIQRgAAAAAAAAgEIIwAAAAAAAAACFEIABAAAAAAAACiEAAwAAAAAAABRCAAYAAAAAAAAohAAMAAAAAAAAUAgBGAAAAAAAAKAQAjAAAAAAAABAIQRgAAAAAAAAgEIIwAAAAAAAAACFEIABAAAAAAAACiEAAwAAAAAAABRCAAYAAAAAAAAohAAMwP+3d59RVpWHHof/ZwpNmooiNsSoYNfYEDV2RcQGGFuMvaKoiRpjuRp77+GaQOwlGiKiYkXFih1bBESxgA0QkV6m3A8YGZogMcvcnedZa9aCM3u/s/c+c86H85v33QAAAAAAQEEIwAAAAAAAAAAFIQADAAAAAAAAFIQADAAAAAAAAFAQAjAAAAAAAABAQQjAAAAAAAAAAAUhAAMAAAAAAAAUhAAMAAAAAAAAUBACMAAAAAAAAEBBCMAAAAAAAAAABSEAAwAAAAAAABSEAAwAAAAAAABQEAIwAAAAAAAAQEEIwAAAAAAAAAAFIQADAAAAAAAAFIQADAAAAAAAAFAQAjAAAAAAAABAQQjAAAAAAAAAAAUhAAMAAAAAAAAUhAAMAAAAAAAAUBACMAAAAAAAAEBBCMAAAAAAAAAABSEAAwAAAAAAABSEAAwAAAAAAABQEAIwAAAAAAAAQEEIwAAAAAAAAAAFIQADAAAAAAAAFIQADAAAAAAAAFAQAjAAAAAAAABAQQjAAAAAAAAAAAUhAAMAAAAAAAAUhAAMAAAAAAAAUBACMAAAAAAAAEBBCMAAAAAAAAAABSEAAwAAAAAAABSEAAwAAAAAAABQEAIwAAAAAAAAQEEIwAAAAAAAAAAFIQADAAAAAAAAFIQADAAAAAAAAFAQAjAAAAAAAABAQQjAAAAAAAAAAAUhAAMAAAAAAAAUhAAMAAAAAAAAUBACMAAAAAAAAEBBCMAAAAAAAAAABSEAAwAAAAAAABSEAAwAAAAAAABQEAIwAAAAAAAAQEEIwAAAAAAAAAAFIQADAAAAAAAAFIQADAAAAAAAAFAQAjAAAAAAAABAQQjAAAAAAAAAAAUhAAMAAAAAAAAUhAAMAAAAAAAAUBACMAAAAAAAAEBBCMAAAAAAAAAABSEAAwAAAAAAABSEAAwAAAAAAABQEAIwAAAAAAAAQEEIwAAAAAAAAAAFIQADAAAAAAAAFIQADAAAAAAAAFAQAjAAAAAAAABAQQjAAAAAAAAAAAUhAAMAAAAAAAAUhAAMAAAAAAAAUBACMAAAAAAAAEBBCMAAAAAAAAAABSEAAwAAAAAAABSEAAwAAAAAAABQEAIwAAAAAAAAQEEIwAAAAAAAAAAFIQADAAAAAAAAFIQADAAAAAAAAFAQAjAAAAAAAABAQVSU1jr4pz4GAAAAAAAAABbDk3886Lt/l9Y6OBWp1+QnPBwAAAAAAAAAfhT1mlgCGgAAAAAAAKAoBGAAAAAAAACAghCAAQAAAAAAAApCAAYAAAAAAAAoCAEYAAAAAAAAoCAEYAAAAAAAAICCEIABAAAAAAAACkIABgAAAAAAACiIip/6AAAAAAAAAABYPDOralJeVkp1TW0SARgAAAAAAADg/62e/d7OjhuvlMdfHZkkKWX942p/4mMCAAAAAAAA4EfgHsAAAAAAAAAABSEAAwAAAAAAABSEAAwAAAAAAABQEAIwAAAAAAAAQEEIwAAAAAAAAAAFIQADAAAAAAAAFIQADAAAAAAAAFAQAjAAAAAAAABAQQjAAAAAAAAAAAUhAAMAAAAAAAAUhAAMAAAAAAAAUBACMAAAAAAAAEBBCMAAAAAAAAAABSEAAwAAAAAAABSEAAwAAAAAAABQEAIwAAAAAAAAQEEIwAAAAAAAAAAFUfFTHwAAAAAAAADw46m/3Oo5eJ/NsmObhqlIMnP853m47zO57c0JmflTHxz/dgIwAAAAAAAA/5nKGmezbp1ybrd2Wa1hWcrKZuTj117Kedc/lSdG1/zURzdbWfMcfu1v0rH/pdn74UmpXcTd6rXfN0P2GJK1fv9mpi9wq1Jabrx5dpr6em7/x7SFjF2WlbbZMz13m5k7evXL/kMnZkaSBi1Wyb4H75c+v3g6R/5xaL783ktXSvO1OuTCE7bMNi3KU1tem7FvvZgzrxqYZ7+u89Mrl0nX47rlrG2XSYMk00a+nQsvfTD3fFw3MdfLmh075dJfr51V6yflpWl589GHc3LvdzOyus5WWx6QkZevn/JpdQ+sOi/3vCKd7xmX/6Bn+v8FARgAAAAAAID/QPWz1fHH5IbWr+aoY+/Nc2OrkorG2Xj3rrm5Z9f85tA+eWzCoqbWf7Oab9L3qpvy/JjJixx/F10pLTfukAO/fjd3LCQAN1prp1y346c54XcvZUTV7Menjf0oN19+Y1494KD0OnBiut3yaWYsYIyyFTbP7Resl4FnX5/j35qc6rLG2eKIw3L7eTOyTY/n83FNklSm/TGH5Kwmj2bPbm/moxnlWb7D7ul72R4Ze0ifPDl51nEvs90+6bPv+JxwwsUZMKY6pSVWyLEXHJ6/HdIrW/b+LFXfnl/jpZbIxzdfkw43fJqqBRwXi849gAEAAAAAAPiPU77aNrl8i/dz5OlPzYq/SVI1Ka/ee1d6vNYuZ+7R4j8odNXmqw8+zJCfMkiXLZWDDmqRv17xckZUlafNNp1z5/Xd80jPo3LTwatnubKZeeeue9N/nR2zX4vSggbJBnttlWb39cmVb01OdZLUTMrzNz2U/q03SMelvt2v0Zo5ZrvROf+qt/LRjCSpzmcv9M9Zb7XNMb9olFKSlC2Z/fZbMQ9e8VAGjJk13bd28qf5U89XUrHtemn33ZNXSstlG2f06AmpDj+G/5zXxf8XlWuk52OX5o5t60yeXmLlnPrn8zPsvJ+ndXmdbUvNcth15+WrAd1zzHJzvpDqbXFARg88IJ0qk5SvlPP7XJWq16+Z46t68LUZdXrbtP3ViZny3ePXpmbwtbO3G3RY9mlYyor79Mj0uo9/93VlBh20bMpTmV9edmWqnzsux65U92kvZblux+WbazZN8+8778br5eYHLsnYOztm3Tl+a37guAu8JrPOYdKdO2XNOcYvZeXdj8wXD/8quzWf8xrWb7dLXnn2dzl/g3XT+8mr57huNd+d/1V585gVU9F4k/QbdFYuWWf24GXNWufIU4/K649cksmvXJ3JA8/OoMs6p1uberOfp1Zr5+xLfpPhAy7OmIEX56snz84Ll3TMzssu4KVTapiNu/4yj9xzXkYPvChjn74oI/92bK7bY4U0md976fx+nwAAAAAA4L9eWdbeYf3UPjYoL06b+3sz8txjgzNt2WXS8LvHSmm50Xa5+cbT8959Z+W9vqek7/EbZPX6dXZrvEnuvWevdN2uc+677fQMffC8fHj34Tlrs6bfBrPytD/p9Dx/8LKpm3tStmxOveW0XLhWWVK2ZHr86Tc5Z+uNc92NZ2fMk8fnxJXLklSky0Vn54b2dfYsa5adjj4ig/ufm/f7nZ5Bl++SXXfqlncuWj91DyupyCpb75a+t56Wdx84Nx/cfmCOXGNWqyg1Wz897zg1/Q5YOdsfd1IG33lYjmk9/0ZRvtKG2Xb0i+k7rjYVq2+fP+01ORee8sd07H5rblqqUy7fvlFKNeNyx4PT0nGbZguMhFUfvZ2ez34157LLVVMyZmJZ6ld+e8RtVskGo4bn2Ul1g/eMvPT6l1lvveW/XYK4LKNeejp93psz61Z/PTFfVVSk3nfdpJSWS9fL6DFT/w2zp/87qU7/qgYr5ITLjsjhY/pm5z+8no/r/A6Xt940h7Z4JSff1y5Hd14uf+79+fz/cqF6ZM7sdlLOrPNQkw12z8DLV8kd93yQYe9fnUa3z3q8/g6HZOyJ36Tjnvfm+e/mwJeyYpKZQx7MBr96LEPmuxB6ZZLafDZ+mZx16mbpf8Kgb6foL4pSWu2weTZ9uV8uXWnbHLbhEznxtbrrty/6uIt8TeqM/cmDfXL69ifn6h5r5rnz3s3XtUkql89Jp2+T8rt75oI3Ps7U7U7M4UlStnz+567fZvO/np1Ofeussd+41Zxn1GT1XNb7yHT7fECOPfaODPhoauovt3K6Htw1f+q1Qpr8+s+56YsW6X7hQen63m3Zebd3MmJqbSqarZhDzjwid58/JRse/Uw+nOtcG3fYM32PaZYrT7gku/1jUmaWKrPy5rvknkuPyEWfX5jjXl7QggoAAAAAAMBs5VmjTdMMe2jsfDvCjNcezE6vzf5/w3V2yf1nLJe/nHZVDn1vamrqL5Xdehya+89Otj3jjXzxbTAob71Fzmx/Z355ZP8Mn1rKUuvtkHsu/nW+Pqpnrh9ZnVf7v5EG52yUtW99OG/V/HOf9bNn5Zs5eti3D1Qsl+O7r5lTz7osJw6b8u3xzZ1Ty9J2/4PTc+030u2XvfPG5KTp6pvlmku2T+v3hs+xZf11dshF4x7Jb494ICOml2flnX+VAWdunWcPfjxDvnkzxx7wdtY7+je5/Ove6Xj3+AXeD7fBGq0y9Z3nMj1labfV6vm0b6+8MzVJpub5vw/MmstXppRk8tsfp+aY5VOR8fNZBrombz34UN6a+2xarZatakfklNGzLmTZkk3SdPyHGT9XsZ06blIql2qSiiQza8bm3t5j5xqplBYbr57l3nw+Q797Ysuz7NIN0mbn/TLg+Db5WZNSxr33Vq64tn/u/EBXWRxmAP8r6i+Xoy85Msd90y8dz34tH86xKHl5Ntlrk+TRF3PHg6+nqlP7tK+3oIHmVNZi/Vx//kYZfvmtufr9H3Ol8+oM+9v9uWfFTrmyY/NFf/LLlsmv9lw6/fu9klv7j03nPddMs8UadzGvSc243Hzx/Xl36245f9OGKaU8a+67d35b/9kc0/vjTF3U85h9QmnbbY8cXfFC9j/10fQfMSnTa6oz4bMPc9PFvbP3ta9lWFVZUr501lxpZl55dmhGTJ31Dlb1zaj0PueqbHLWyxk1zztsKS1WaZklP30v/YZMyswkqZ2ZT17on933uT5/eHPm3DsAAAAAAADzU6qXJg1nZtLURZgTWmqSbodtlKHX/jW93ps6K5BOH5cHrrord6+yc7q3rVMuZg7LZde8nuFTa5PUZNxbA3JSv4Y5bPdZs1ar3n8ld01fP/ut+c+ZvGVpu/16yYDX84/vgmVZBt3+99z4Xfydj/KVc+hepdxw6bN5Y3JtktpMGP5STr7l/cxTC6YPycXXvJkR05OkOp888Xwebr5q2s93adEFXoQs0bgskyZWJSmledNSvp44++iqP34zfxr0TWqS1E6amqpGDRZ9lmhZ03Q7rn3G3Pps3vh2yFJlRcpq5pOiq2tSU1E+5wzqukfZZI2cdWDD9LpteKZ892BFvhk1KiOGDMqvDzw3bXa9NAc92iC/u+aA7LvApar5PgLw4qpcNodccHROmdE/u/zPq3PcSDtJskS7HLHd+Nz68JjM+OTV3PL5ejl88waLMG7LHHve3tlw4O05+tEF/xXH4imlbNqI/OHSd7Jejz3SZelFe9HUW7t9fl35Wm55Z2a+eOLFvLjh5unSYs7lmxdp3MW9JklqPn8px18/Ol1P65Tt1twy1x3SIH8+/7G8NM+yD4ug1Di/2KxVPnnytXn3rxmfJ+9/NS+Mrk6qPs7fn5iWvc88Jn88aOPs2G7JNC1PaiePz/Avp837Bp3ajHzh9bzYumPuu7hzjtpm1bRdsjKlVGf0p2MzZrqFCwAAAAAA4EdXsVK2Xu2T3PfSlDmXEK76PPe/kHT4+ezJazVfj89n0+tuVJOhr4xIo7YrplkpSc3Y3P3wxOzWaZVZyzSXtUzXbarS5/HRs2Nvzdd596Pp37tccWnJFbJ+zYg881nd0lObSVNmpFQ+Z0eZ+cEnebPuRNeaKflqYv00W2LRL0FSm8mTatKkaUWS2nwzMVmq6ewMW97m5+m+xaylrktNG6Vi8rQs2hTE8rTttn9OrXokJz0+YdGWaK5dwFZlzbP3aXukdZ+7c8PIOteldkoevbZ3Drvj/VnPTc3UvPNQnxz9RKv02G2ZBcZkFkwAXhylyvyix+E5c63KNFmySRrPcxVLabldh2w39KX0GV2b1HyTPv0+yTZ7rZeW39tc62eLYw7OGfWeygHXDp9n2vzCVLbbNW+8eFWmvVzn6/nuOWaOH1qb8S/2z29fXjWX9lg7C2/A9bNDlw0z+sFX8m5Nkknv5sbnW+bQTi3mesEtbNzFvSazx/+o3z0569ONcm/vTlm679254O3FnPZfapQWTZMx4yZ9f2CvnZpHL7kiW1z+bqrX6ZArrjsjY575Q164uHP2XrV+5nfY1R8+k8779sp1nzTLbof9Ki88ekm+6HNMeu63Wlp5hwIAAAAAgEVTOyMTp1WmScNFiAiVjdK8elLGzjNzqzZjv5qSZs0azg5itbXzRMyaSVMyoWGDzJpwW5tRA17J8A6bZOsGScVqG6bzxMHp82mdvWqmZcKU7484ZUs0zBJTpuabuTeb38+vWcBYP3Dy67Rhn6XBuq3TIDUZ/twHad1li6zbMElZo2zVdatsUn9mapI0Wbd1SkM/nc9Et3kPoMXme+XmnT9O94vezBd1o0pVdWrK5pMZy8tSVlU9n7hcP5se/uv8ZsL9ObTv2EWIzzPz+qufZIU1WqVyodsyN/cAXiy1+fShW9LxpuocdX33/P2sr7L1/7wxe0ngsqWzf5d2adVujXzw7D6zHiuVp0F5s+y34iu5euT8XsiltNr+l7m105j89uCnsjhtc+bQ/tlkgfcArnv4k/LAtf2y/x1dct5mI3Le9/y9Rmmp9XPE9kum/U6nZVz3f55fRRp80T4b3vlAXq37Cv2+cRd6TRbhBGvG5ZabXs+ZGy+dq27+aPbSAD9U7ZSMnZC0WrZZyjPu+yNwzZS8PWBAegwYkKQ8S67UJl0P6ZreNzTPtC535IFJ8167aV8MT6/rh6fX9UmpQdOs337zXPD7o3Nv/cuz5c1fLOSexwAAAAAAQFKd90ZMSLs1lkn505/P89l6vQ075b5tPszeVw3J5JlT8k35Elm6IpmzLJay1JINM+Gbqd/bAsoaN0qTKeMy8duP/Gu/fju3D90x+7dvlLFrrZXRj/85I3/gkq01k6dmUqOlZ80qnvOQ/m2qRw3O40vvlm4thuf2YY/niH6dcvHVJ6RFRVVGDXokJw+cmpS1yK93q5eHLlj4bN76P/tFbj2+Ya486e95aa4oUz1uQiY0b5rmpeTLOgM1WrpxZoybNNfzVZbWu+yXnmu/ngNOHpqv5vrBpcatskPbqjz32pg5bvtZO59YzqIxA3hx1FblgyGfZvzUUbnsd3fl6fX3S5+jVsk/l2KvbLd5DmkxKB23PiXNtzx11tcWp2WXfs1yyO4rzLe612uzVW75/Up58Oy/5q4vftyFn+d7CmMH5+TrP8+ev9slHeov6OeVsuoum2fTF27O8lucOvtctrwiF83YKIdvPO8NfBc07uJck/ked1V1ZtZWZ8a/cmvk2kl5+sXPssKO7bP93OvnlzVP1xP3zfHr1E9Fi9bpskObtPruVVKdr0e+n79c83Seb7JyNllxrn1LDdK2/Ubp2Gb236LUTpuQNwYOyAWPTsy6666QRVvwGgAAAAAA/tvV5N0n305pp/ZpP8+H65Vpv8OGWWLst8GwamSefn/l7LbJXBuWt0znDmV5YfDsW26WLdksLedYsbMsa2zUJlOGjpo9W7d2ah55cEQ27rxTDu8wPvc8NfEHh8jar0fljbTJlsvP2RLq16tMaTGqZm1tUiotpB7XfJ3bbvkie5+8edrWq8r7A+5Pt6OuyTaH/TG/6j0sX9TUywYHdsmOgx/L3XNX2LmUll4n1/5h3Qw89+787ct5t6368MO8sdLq2WqOzlI/W2zSKm+//VmdDl9Ksw13ze37js/JZz2fYfObdly+Qo46c9t0qF/3wbKs1m65fPHBl4swU5m5CcD/opqxb6X7yY9n+j6H5ebOLVKRetm2y8Zp9MzgvDDHLN6ZeeGxf2SJTh3yi/pzDbLEqvnDRTunwe235Hdzr0//b1ObUf3vzTmfbZSL9245//XTK1bMIXu2zFOPDc03dR+v+Tx9npiSPbusk6Xmea+Z37iLcU3+rWryXp/703Pyxrnl6j2y71rN07iyMkuutFqOPvvo9NqhMp99OSO1DVun+9mH5caD26ZNo1knWr5Ei+x0YPtsOn5Enp/7z31qa7PSdp1z9yVdc0DbxpmVx8uzzFqbpPu2S+TV1z/JtJSy7Do/z8Edls3CT/mHbAsAAAAAAMVSNXxgTnlh9fziKSWZAAAFY0lEQVTp3K2ycbNvk1Z5o2yw+z65bpNhOe++r2aF3dqJ6XPjG1m7xz455Gff3sKxsnk69tgv+498LD2H1vk8v17bnHTMWlmpXpKU0rTd1rl896np9cBnc0wenvzKKxmw5rbZ9/PX8+APvWdnklSPzE331ebo326VdRuVkpTSqPVGuezgtqlc0JLPCzRrKesV2yyThgvZctqQAen+cMtccekeOWCtpt/2hVIatlw1h592WM5t8nSOuOPz74+qDVbMKRd2THrdksuGLmDJ2ilD878Dls1ZJ66fVeolSVmW23zXnL320NzwzOzWVbnSZrnplGXT+4z7M3DC/M+7dsI/0uvVn+W8Y9qmVcWs422yxpa5uPPU3Pzwl1ZWXQyWgP4RTB32RPY5p2WeveDwXDL5mbTeoTr3nfBR5n5JTH/r9dxfc3iO+MWDeb7OVPn67bdOj7ZNUn+NUzOpx5z7VH/+THbc4+95ZhFmvFau2Tlvv7rrPI9PH3R3Vj3ulXl3qPkqN176WPa7s0tW/HjebzfauEMOXHJIjn9p2tw7ZuiAN/LJQR2yT8t38tVCxi01XzdHLvSa9M+p8z2Hqgy44A/Z5e+LeGPxRVQ7aXhOPfzavHfULvndlafn5hYVmfLV6Lz09KB0PfS5PDWmNsmz+WX32px71F55+qCl07SsNjUzJmfY4ME59thH8ujkuUedngFX9MxBh+6aky89Pde3qEhqajLpi1F55K9/zj53jUl1yvOzHTvnjz97LA8OGp3pSVJqkP2uuCL71Blp1vN+X2bW3dY6BwAAAAAA/DepnZqB1/xvjtqncy7pdUZWrF9KWWlmRg5+KSd2H5inJs7+4HzK2/2zx8Xb5bIzf5tTmya1ZVV5/5nHs9c5g/NZnf5bM3pw/jJsjfyx925ZpUmDNJrxaW45/7b8adRcH8LP+CSDhkzPqk8PydeL9fl8Td676+Yc12Sf3HbPdmk4c0bGf/xOrrz37eyy7g8PwF88MTAP73lghj80KXecc3lOeXlBWbQmo57umy5DV88h++2Rvx69RCpLyYxxo/LgvXeky5sTFnL/3VKW67RHztlgqXze8sQMOWnO705/pV+2vOCtTMzMvHjDX3J2973T957OqVdbStXoobn01PvyxHf9pDK7Hts1nVaYkrWuPyO/n2Ok6gy+6X9zQL+vU1M7NY9ecWOWOq5L+t25V+qXV6Zi8sjcct5t+fOn4sjiKGX941w5AAAAAAAAiq3xJul7Z+tc3aVPnl7YxLuG7dKz14Z54Ii78vDUhWy7yEpZ9cAe6du8bza67pOFhFhYfJaABgAAAAAAgH8q1c/PD9g5m746KE8udvwtZdUu+6TnnitmybJZ/2/Wdstc0a2U2/uPEn/5t7IENAAAAAAAACSp/PluGXTRZlli6MAcesbHs27luFhqM+KhgXnysF1z/19bZql6lSlN+CS3X3hTrhxRs/Dd4V9gCWgAAAAAAACAgrAENAAAAAAAAEBBCMAAAAAAAAAABSEAAwAAAAAAABSEAAwAAAAAAABQEAIwAAAAAAAAQEEIwAAAAAAAAAAFIQADAAAAAAAAFIQADAAAAAAAAFAQAjAAAAAAAABAQQjAAAAAAAAAAAUhAAMAAAAAAAAUhAAMAAAAAAAAUBACMAAAAAAAAEBBCMAAAAAAAAAABSEAAwAAAAAAABSEAAwAAAAAAABQEAIwAAAAAAAAQEEIwAAAAAAAAAAFIQADAAAAAAAAFIQADAAAAAAAAFAQAjAAAAAAAABAQQjAAAAAAAAAAAUhAAMAAAAAAAAUhAAMAAAAAAAAUBACMAAAAAAAAEBBCMAAAAAAAAAABfF/RBA7285o4mQAAAAASUVORK5CYII=;" vertex="1" parent="1">
                    <mxGeometry x="40" y="80" width="730.14" height="410" as="geometry"/>
                </mxCell>
                <mxCell id="3" value="Datos de salida" style="rounded=0;whiteSpace=wrap;html=1;align=left;fillColor=#dae8fc;strokeColor=#6c8ebf;" vertex="1" parent="1">
                    <mxGeometry x="60" y="520" width="680" height="30" as="geometry"/>
                </mxCell>
                <mxCell id="8" style="edgeStyle=none;html=1;exitX=1;exitY=0.5;exitDx=0;exitDy=0;entryX=0.25;entryY=0;entryDx=0;entryDy=0;" edge="1" parent="1" source="7" target="3">
                    <mxGeometry relative="1" as="geometry"/>
                </mxCell>
                <mxCell id="7" value="" style="rounded=0;whiteSpace=wrap;html=1;fillColor=#f8cecc;strokeColor=#b85450;" vertex="1" parent="1">
                    <mxGeometry x="60" y="180" width="10" height="10" as="geometry"/>
                </mxCell>
            </root>
        </mxGraphModel>
    </diagram>
</mxfile>